<svg xmlns="http://www.w3.org/2000/svg" version="1.2"
    width="24px" height="24px" viewBox="0 0 24 24">
  <style>
    rect.c1 {  fill: #ffffffff }  /*   9 pixel(s) */
    rect.c2 {  fill: #000000ff }  /*  63 pixel(s) */
    rect.c3 {  fill: #f841ffff }  /*   2 pixel(s) */
    rect.c5 {  fill: #2cff0bff }  /*   7 pixel(s) */
    rect.c6 {  fill: #ffff0fff }  /*  10 pixel(s) */
    rect.c7 {  fill: #fa6b0dff }  /*  10 pixel(s) */
    rect.c8 {  fill: #f6000bff }  /*  10 pixel(s) */
    rect.c10 {  fill: #86581eff }  /*   4 pixel(s) */
    rect.c12 {  fill: #ff96b9ff }  /*  25 pixel(s) */
    rect.c4 {  fill: #2bffffff }  /*   6 pixel(s) */
    rect.c9 {  fill: #ae8b61ff }  /*  97 pixel(s) */
    rect.c11 {  fill: #ff80aaff }  /*  18 pixel(s) */
    rect.px {  shape-rendering: crispEdges  }
  </style>
  <rect class="px c1" x="4" y="0" width="1" height="1"/>
  <rect class="px c1" x="3" y="1" width="1" height="1"/>
  <rect class="px c1" x="4" y="1" width="1" height="1"/>
  <rect class="px c1" x="5" y="1" width="1" height="1"/>
  <rect class="px c2" x="6" y="1" width="1" height="1"/>
  <rect class="px c2" x="7" y="1" width="1" height="1"/>
  <rect class="px c2" x="8" y="1" width="1" height="1"/>
  <rect class="px c1" x="4" y="2" width="1" height="1"/>
  <rect class="px c2" x="5" y="2" width="1" height="1"/>
  <rect class="px c3" x="6" y="2" width="1" height="1"/>
  <rect class="px c3" x="7" y="2" width="1" height="1"/>
  <rect class="px c4" x="8" y="2" width="1" height="1"/>
  <rect class="px c2" x="9" y="2" width="1" height="1"/>
  <rect class="px c2" x="10" y="2" width="1" height="1"/>
  <rect class="px c2" x="5" y="3" width="1" height="1"/>
  <rect class="px c4" x="6" y="3" width="1" height="1"/>
  <rect class="px c4" x="7" y="3" width="1" height="1"/>
  <rect class="px c4" x="8" y="3" width="1" height="1"/>
  <rect class="px c4" x="9" y="3" width="1" height="1"/>
  <rect class="px c5" x="10" y="3" width="1" height="1"/>
  <rect class="px c2" x="11" y="3" width="1" height="1"/>
  <rect class="px c2" x="12" y="3" width="1" height="1"/>
  <rect class="px c2" x="13" y="3" width="1" height="1"/>
  <rect class="px c2" x="5" y="4" width="1" height="1"/>
  <rect class="px c4" x="6" y="4" width="1" height="1"/>
  <rect class="px c5" x="7" y="4" width="1" height="1"/>
  <rect class="px c5" x="8" y="4" width="1" height="1"/>
  <rect class="px c5" x="9" y="4" width="1" height="1"/>
  <rect class="px c5" x="10" y="4" width="1" height="1"/>
  <rect class="px c6" x="11" y="4" width="1" height="1"/>
  <rect class="px c6" x="12" y="4" width="1" height="1"/>
  <rect class="px c6" x="13" y="4" width="1" height="1"/>
  <rect class="px c2" x="14" y="4" width="1" height="1"/>
  <rect class="px c2" x="5" y="5" width="1" height="1"/>
  <rect class="px c5" x="6" y="5" width="1" height="1"/>
  <rect class="px c5" x="7" y="5" width="1" height="1"/>
  <rect class="px c6" x="8" y="5" width="1" height="1"/>
  <rect class="px c6" x="9" y="5" width="1" height="1"/>
  <rect class="px c6" x="10" y="5" width="1" height="1"/>
  <rect class="px c6" x="11" y="5" width="1" height="1"/>
  <rect class="px c7" x="12" y="5" width="1" height="1"/>
  <rect class="px c7" x="13" y="5" width="1" height="1"/>
  <rect class="px c7" x="14" y="5" width="1" height="1"/>
  <rect class="px c2" x="15" y="5" width="1" height="1"/>
  <rect class="px c2" x="5" y="6" width="1" height="1"/>
  <rect class="px c6" x="6" y="6" width="1" height="1"/>
  <rect class="px c6" x="7" y="6" width="1" height="1"/>
  <rect class="px c6" x="8" y="6" width="1" height="1"/>
  <rect class="px c7" x="9" y="6" width="1" height="1"/>
  <rect class="px c7" x="10" y="6" width="1" height="1"/>
  <rect class="px c7" x="11" y="6" width="1" height="1"/>
  <rect class="px c7" x="12" y="6" width="1" height="1"/>
  <rect class="px c8" x="13" y="6" width="1" height="1"/>
  <rect class="px c8" x="14" y="6" width="1" height="1"/>
  <rect class="px c2" x="15" y="6" width="1" height="1"/>
  <rect class="px c2" x="6" y="7" width="1" height="1"/>
  <rect class="px c7" x="7" y="7" width="1" height="1"/>
  <rect class="px c7" x="8" y="7" width="1" height="1"/>
  <rect class="px c7" x="9" y="7" width="1" height="1"/>
  <rect class="px c8" x="10" y="7" width="1" height="1"/>
  <rect class="px c8" x="11" y="7" width="1" height="1"/>
  <rect class="px c8" x="12" y="7" width="1" height="1"/>
  <rect class="px c8" x="13" y="7" width="1" height="1"/>
  <rect class="px c2" x="14" y="7" width="1" height="1"/>
  <rect class="px c9" x="15" y="7" width="1" height="1"/>
  <rect class="px c2" x="16" y="7" width="1" height="1"/>
  <rect class="px c2" x="6" y="8" width="1" height="1"/>
  <rect class="px c8" x="7" y="8" width="1" height="1"/>
  <rect class="px c8" x="8" y="8" width="1" height="1"/>
  <rect class="px c8" x="9" y="8" width="1" height="1"/>
  <rect class="px c8" x="10" y="8" width="1" height="1"/>
  <rect class="px c2" x="11" y="8" width="1" height="1"/>
  <rect class="px c2" x="12" y="8" width="1" height="1"/>
  <rect class="px c2" x="13" y="8" width="1" height="1"/>
  <rect class="px c9" x="14" y="8" width="1" height="1"/>
  <rect class="px c9" x="15" y="8" width="1" height="1"/>
  <rect class="px c2" x="16" y="8" width="1" height="1"/>
  <rect class="px c2" x="6" y="9" width="1" height="1"/>
  <rect class="px c2" x="7" y="9" width="1" height="1"/>
  <rect class="px c2" x="8" y="9" width="1" height="1"/>
  <rect class="px c2" x="9" y="9" width="1" height="1"/>
  <rect class="px c2" x="10" y="9" width="1" height="1"/>
  <rect class="px c9" x="11" y="9" width="1" height="1"/>
  <rect class="px c9" x="12" y="9" width="1" height="1"/>
  <rect class="px c9" x="13" y="9" width="1" height="1"/>
  <rect class="px c9" x="14" y="9" width="1" height="1"/>
  <rect class="px c9" x="15" y="9" width="1" height="1"/>
  <rect class="px c2" x="16" y="9" width="1" height="1"/>
  <rect class="px c2" x="6" y="10" width="1" height="1"/>
  <rect class="px c9" x="7" y="10" width="1" height="1"/>
  <rect class="px c9" x="8" y="10" width="1" height="1"/>
  <rect class="px c9" x="9" y="10" width="1" height="1"/>
  <rect class="px c9" x="10" y="10" width="1" height="1"/>
  <rect class="px c9" x="11" y="10" width="1" height="1"/>
  <rect class="px c9" x="12" y="10" width="1" height="1"/>
  <rect class="px c9" x="13" y="10" width="1" height="1"/>
  <rect class="px c9" x="14" y="10" width="1" height="1"/>
  <rect class="px c9" x="15" y="10" width="1" height="1"/>
  <rect class="px c2" x="16" y="10" width="1" height="1"/>
  <rect class="px c2" x="6" y="11" width="1" height="1"/>
  <rect class="px c9" x="7" y="11" width="1" height="1"/>
  <rect class="px c9" x="8" y="11" width="1" height="1"/>
  <rect class="px c10" x="9" y="11" width="1" height="1"/>
  <rect class="px c10" x="10" y="11" width="1" height="1"/>
  <rect class="px c9" x="11" y="11" width="1" height="1"/>
  <rect class="px c9" x="12" y="11" width="1" height="1"/>
  <rect class="px c9" x="13" y="11" width="1" height="1"/>
  <rect class="px c10" x="14" y="11" width="1" height="1"/>
  <rect class="px c10" x="15" y="11" width="1" height="1"/>
  <rect class="px c2" x="16" y="11" width="1" height="1"/>
  <rect class="px c2" x="5" y="12" width="1" height="1"/>
  <rect class="px c9" x="6" y="12" width="1" height="1"/>
  <rect class="px c9" x="7" y="12" width="1" height="1"/>
  <rect class="px c9" x="8" y="12" width="1" height="1"/>
  <rect class="px c2" x="9" y="12" width="1" height="1"/>
  <rect class="px c1" x="10" y="12" width="1" height="1"/>
  <rect class="px c9" x="11" y="12" width="1" height="1"/>
  <rect class="px c9" x="12" y="12" width="1" height="1"/>
  <rect class="px c9" x="13" y="12" width="1" height="1"/>
  <rect class="px c2" x="14" y="12" width="1" height="1"/>
  <rect class="px c1" x="15" y="12" width="1" height="1"/>
  <rect class="px c2" x="16" y="12" width="1" height="1"/>
  <rect class="px c2" x="5" y="13" width="1" height="1"/>
  <rect class="px c9" x="6" y="13" width="1" height="1"/>
  <rect class="px c9" x="7" y="13" width="1" height="1"/>
  <rect class="px c9" x="8" y="13" width="1" height="1"/>
  <rect class="px c9" x="9" y="13" width="1" height="1"/>
  <rect class="px c9" x="10" y="13" width="1" height="1"/>
  <rect class="px c9" x="11" y="13" width="1" height="1"/>
  <rect class="px c9" x="12" y="13" width="1" height="1"/>
  <rect class="px c9" x="13" y="13" width="1" height="1"/>
  <rect class="px c9" x="14" y="13" width="1" height="1"/>
  <rect class="px c9" x="15" y="13" width="1" height="1"/>
  <rect class="px c2" x="16" y="13" width="1" height="1"/>
  <rect class="px c2" x="5" y="14" width="1" height="1"/>
  <rect class="px c2" x="6" y="14" width="1" height="1"/>
  <rect class="px c9" x="7" y="14" width="1" height="1"/>
  <rect class="px c9" x="8" y="14" width="1" height="1"/>
  <rect class="px c9" x="9" y="14" width="1" height="1"/>
  <rect class="px c9" x="10" y="14" width="1" height="1"/>
  <rect class="px c9" x="11" y="14" width="1" height="1"/>
  <rect class="px c9" x="12" y="14" width="1" height="1"/>
  <rect class="px c9" x="13" y="14" width="1" height="1"/>
  <rect class="px c9" x="14" y="14" width="1" height="1"/>
  <rect class="px c9" x="15" y="14" width="1" height="1"/>
  <rect class="px c2" x="16" y="14" width="1" height="1"/>
  <rect class="px c2" x="6" y="15" width="1" height="1"/>
  <rect class="px c9" x="7" y="15" width="1" height="1"/>
  <rect class="px c9" x="8" y="15" width="1" height="1"/>
  <rect class="px c9" x="9" y="15" width="1" height="1"/>
  <rect class="px c9" x="10" y="15" width="1" height="1"/>
  <rect class="px c9" x="11" y="15" width="1" height="1"/>
  <rect class="px c2" x="12" y="15" width="1" height="1"/>
  <rect class="px c2" x="13" y="15" width="1" height="1"/>
  <rect class="px c9" x="14" y="15" width="1" height="1"/>
  <rect class="px c9" x="15" y="15" width="1" height="1"/>
  <rect class="px c11" x="16" y="15" width="1" height="1"/>
  <rect class="px c11" x="17" y="15" width="1" height="1"/>
  <rect class="px c11" x="18" y="15" width="1" height="1"/>
  <rect class="px c11" x="19" y="15" width="1" height="1"/>
  <rect class="px c2" x="6" y="16" width="1" height="1"/>
  <rect class="px c9" x="7" y="16" width="1" height="1"/>
  <rect class="px c9" x="8" y="16" width="1" height="1"/>
  <rect class="px c9" x="9" y="16" width="1" height="1"/>
  <rect class="px c9" x="10" y="16" width="1" height="1"/>
  <rect class="px c9" x="11" y="16" width="1" height="1"/>
  <rect class="px c9" x="12" y="16" width="1" height="1"/>
  <rect class="px c9" x="13" y="16" width="1" height="1"/>
  <rect class="px c9" x="14" y="16" width="1" height="1"/>
  <rect class="px c11" x="15" y="16" width="1" height="1"/>
  <rect class="px c12" x="16" y="16" width="1" height="1"/>
  <rect class="px c12" x="17" y="16" width="1" height="1"/>
  <rect class="px c12" x="18" y="16" width="1" height="1"/>
  <rect class="px c12" x="19" y="16" width="1" height="1"/>
  <rect class="px c11" x="20" y="16" width="1" height="1"/>
  <rect class="px c2" x="6" y="17" width="1" height="1"/>
  <rect class="px c9" x="7" y="17" width="1" height="1"/>
  <rect class="px c9" x="8" y="17" width="1" height="1"/>
  <rect class="px c9" x="9" y="17" width="1" height="1"/>
  <rect class="px c9" x="10" y="17" width="1" height="1"/>
  <rect class="px c9" x="11" y="17" width="1" height="1"/>
  <rect class="px c9" x="12" y="17" width="1" height="1"/>
  <rect class="px c9" x="13" y="17" width="1" height="1"/>
  <rect class="px c11" x="14" y="17" width="1" height="1"/>
  <rect class="px c12" x="15" y="17" width="1" height="1"/>
  <rect class="px c1" x="16" y="17" width="1" height="1"/>
  <rect class="px c12" x="17" y="17" width="1" height="1"/>
  <rect class="px c12" x="18" y="17" width="1" height="1"/>
  <rect class="px c12" x="19" y="17" width="1" height="1"/>
  <rect class="px c12" x="20" y="17" width="1" height="1"/>
  <rect class="px c11" x="21" y="17" width="1" height="1"/>
  <rect class="px c2" x="6" y="18" width="1" height="1"/>
  <rect class="px c9" x="7" y="18" width="1" height="1"/>
  <rect class="px c9" x="8" y="18" width="1" height="1"/>
  <rect class="px c9" x="9" y="18" width="1" height="1"/>
  <rect class="px c9" x="10" y="18" width="1" height="1"/>
  <rect class="px c2" x="11" y="18" width="1" height="1"/>
  <rect class="px c2" x="12" y="18" width="1" height="1"/>
  <rect class="px c11" x="13" y="18" width="1" height="1"/>
  <rect class="px c12" x="14" y="18" width="1" height="1"/>
  <rect class="px c1" x="15" y="18" width="1" height="1"/>
  <rect class="px c12" x="16" y="18" width="1" height="1"/>
  <rect class="px c12" x="17" y="18" width="1" height="1"/>
  <rect class="px c12" x="18" y="18" width="1" height="1"/>
  <rect class="px c12" x="19" y="18" width="1" height="1"/>
  <rect class="px c12" x="20" y="18" width="1" height="1"/>
  <rect class="px c11" x="21" y="18" width="1" height="1"/>
  <rect class="px c2" x="6" y="19" width="1" height="1"/>
  <rect class="px c9" x="7" y="19" width="1" height="1"/>
  <rect class="px c9" x="8" y="19" width="1" height="1"/>
  <rect class="px c9" x="9" y="19" width="1" height="1"/>
  <rect class="px c9" x="10" y="19" width="1" height="1"/>
  <rect class="px c9" x="11" y="19" width="1" height="1"/>
  <rect class="px c9" x="12" y="19" width="1" height="1"/>
  <rect class="px c9" x="13" y="19" width="1" height="1"/>
  <rect class="px c11" x="14" y="19" width="1" height="1"/>
  <rect class="px c12" x="15" y="19" width="1" height="1"/>
  <rect class="px c12" x="16" y="19" width="1" height="1"/>
  <rect class="px c12" x="17" y="19" width="1" height="1"/>
  <rect class="px c12" x="18" y="19" width="1" height="1"/>
  <rect class="px c12" x="19" y="19" width="1" height="1"/>
  <rect class="px c12" x="20" y="19" width="1" height="1"/>
  <rect class="px c11" x="21" y="19" width="1" height="1"/>
  <rect class="px c2" x="6" y="20" width="1" height="1"/>
  <rect class="px c9" x="7" y="20" width="1" height="1"/>
  <rect class="px c9" x="8" y="20" width="1" height="1"/>
  <rect class="px c9" x="9" y="20" width="1" height="1"/>
  <rect class="px c9" x="10" y="20" width="1" height="1"/>
  <rect class="px c9" x="11" y="20" width="1" height="1"/>
  <rect class="px c9" x="12" y="20" width="1" height="1"/>
  <rect class="px c9" x="13" y="20" width="1" height="1"/>
  <rect class="px c9" x="14" y="20" width="1" height="1"/>
  <rect class="px c11" x="15" y="20" width="1" height="1"/>
  <rect class="px c12" x="16" y="20" width="1" height="1"/>
  <rect class="px c12" x="17" y="20" width="1" height="1"/>
  <rect class="px c12" x="18" y="20" width="1" height="1"/>
  <rect class="px c12" x="19" y="20" width="1" height="1"/>
  <rect class="px c11" x="20" y="20" width="1" height="1"/>
  <rect class="px c2" x="6" y="21" width="1" height="1"/>
  <rect class="px c9" x="7" y="21" width="1" height="1"/>
  <rect class="px c9" x="8" y="21" width="1" height="1"/>
  <rect class="px c9" x="9" y="21" width="1" height="1"/>
  <rect class="px c2" x="10" y="21" width="1" height="1"/>
  <rect class="px c2" x="11" y="21" width="1" height="1"/>
  <rect class="px c2" x="12" y="21" width="1" height="1"/>
  <rect class="px c2" x="13" y="21" width="1" height="1"/>
  <rect class="px c2" x="14" y="21" width="1" height="1"/>
  <rect class="px c11" x="16" y="21" width="1" height="1"/>
  <rect class="px c11" x="17" y="21" width="1" height="1"/>
  <rect class="px c11" x="18" y="21" width="1" height="1"/>
  <rect class="px c11" x="19" y="21" width="1" height="1"/>
  <rect class="px c2" x="6" y="22" width="1" height="1"/>
  <rect class="px c9" x="7" y="22" width="1" height="1"/>
  <rect class="px c9" x="8" y="22" width="1" height="1"/>
  <rect class="px c9" x="9" y="22" width="1" height="1"/>
  <rect class="px c2" x="10" y="22" width="1" height="1"/>
  <rect class="px c2" x="6" y="23" width="1" height="1"/>
  <rect class="px c9" x="7" y="23" width="1" height="1"/>
  <rect class="px c9" x="8" y="23" width="1" height="1"/>
  <rect class="px c9" x="9" y="23" width="1" height="1"/>
  <rect class="px c2" x="10" y="23" width="1" height="1"/>
</svg>
