<svg xmlns="http://www.w3.org/2000/svg" version="1.2"
    width="24px" height="24px" viewBox="0 0 24 24">
  <style>
    rect.c3 {  fill: #ffff0fff }  /*   3 pixel(s) */
    rect.c4 {  fill: #ffff53ff }  /*   3 pixel(s) */
    rect.c5 {  fill: #000000ff }  /*  39 pixel(s) */
    rect.c6 {  fill: #713f1dff }  /*  78 pixel(s) */
    rect.c7 {  fill: #562600ff }  /*   4 pixel(s) */
    rect.c8 {  fill: #ffffffff }  /*   2 pixel(s) */
    rect.c9 {  fill: #4a1201ff }  /*   4 pixel(s) */
    rect.c2 {  fill: #fcc5d0ff }  /*  24 pixel(s) */
    rect.c10 {  fill: #ffc926ff }  /*   3 pixel(s) */
    rect.c1 {  fill: #f84d54ff }  /*  48 pixel(s) */
    rect.px {  shape-rendering: crispEdges  }
  </style>
  <rect class="px c1" x="5" y="2" width="1" height="1"/>
  <rect class="px c1" x="6" y="2" width="1" height="1"/>
  <rect class="px c1" x="10" y="2" width="1" height="1"/>
  <rect class="px c1" x="11" y="2" width="1" height="1"/>
  <rect class="px c1" x="4" y="3" width="1" height="1"/>
  <rect class="px c1" x="5" y="3" width="1" height="1"/>
  <rect class="px c2" x="6" y="3" width="1" height="1"/>
  <rect class="px c1" x="7" y="3" width="1" height="1"/>
  <rect class="px c1" x="9" y="3" width="1" height="1"/>
  <rect class="px c2" x="10" y="3" width="1" height="1"/>
  <rect class="px c1" x="11" y="3" width="1" height="1"/>
  <rect class="px c1" x="12" y="3" width="1" height="1"/>
  <rect class="px c1" x="4" y="4" width="1" height="1"/>
  <rect class="px c2" x="5" y="4" width="1" height="1"/>
  <rect class="px c2" x="6" y="4" width="1" height="1"/>
  <rect class="px c2" x="7" y="4" width="1" height="1"/>
  <rect class="px c1" x="8" y="4" width="1" height="1"/>
  <rect class="px c2" x="9" y="4" width="1" height="1"/>
  <rect class="px c2" x="10" y="4" width="1" height="1"/>
  <rect class="px c2" x="11" y="4" width="1" height="1"/>
  <rect class="px c1" x="12" y="4" width="1" height="1"/>
  <rect class="px c1" x="5" y="5" width="1" height="1"/>
  <rect class="px c2" x="6" y="5" width="1" height="1"/>
  <rect class="px c1" x="7" y="5" width="1" height="1"/>
  <rect class="px c3" x="8" y="5" width="1" height="1"/>
  <rect class="px c1" x="9" y="5" width="1" height="1"/>
  <rect class="px c2" x="10" y="5" width="1" height="1"/>
  <rect class="px c1" x="11" y="5" width="1" height="1"/>
  <rect class="px c1" x="15" y="5" width="1" height="1"/>
  <rect class="px c1" x="17" y="5" width="1" height="1"/>
  <rect class="px c1" x="6" y="6" width="1" height="1"/>
  <rect class="px c4" x="7" y="6" width="1" height="1"/>
  <rect class="px c4" x="8" y="6" width="1" height="1"/>
  <rect class="px c3" x="9" y="6" width="1" height="1"/>
  <rect class="px c1" x="10" y="6" width="1" height="1"/>
  <rect class="px c1" x="14" y="6" width="1" height="1"/>
  <rect class="px c2" x="15" y="6" width="1" height="1"/>
  <rect class="px c1" x="16" y="6" width="1" height="1"/>
  <rect class="px c2" x="17" y="6" width="1" height="1"/>
  <rect class="px c1" x="18" y="6" width="1" height="1"/>
  <rect class="px c1" x="5" y="7" width="1" height="1"/>
  <rect class="px c2" x="6" y="7" width="1" height="1"/>
  <rect class="px c1" x="7" y="7" width="1" height="1"/>
  <rect class="px c4" x="8" y="7" width="1" height="1"/>
  <rect class="px c1" x="9" y="7" width="1" height="1"/>
  <rect class="px c2" x="10" y="7" width="1" height="1"/>
  <rect class="px c1" x="11" y="7" width="1" height="1"/>
  <rect class="px c5" x="12" y="7" width="1" height="1"/>
  <rect class="px c5" x="13" y="7" width="1" height="1"/>
  <rect class="px c5" x="14" y="7" width="1" height="1"/>
  <rect class="px c1" x="15" y="7" width="1" height="1"/>
  <rect class="px c3" x="16" y="7" width="1" height="1"/>
  <rect class="px c1" x="17" y="7" width="1" height="1"/>
  <rect class="px c1" x="4" y="8" width="1" height="1"/>
  <rect class="px c2" x="5" y="8" width="1" height="1"/>
  <rect class="px c2" x="6" y="8" width="1" height="1"/>
  <rect class="px c2" x="7" y="8" width="1" height="1"/>
  <rect class="px c1" x="8" y="8" width="1" height="1"/>
  <rect class="px c2" x="9" y="8" width="1" height="1"/>
  <rect class="px c2" x="10" y="8" width="1" height="1"/>
  <rect class="px c2" x="11" y="8" width="1" height="1"/>
  <rect class="px c1" x="12" y="8" width="1" height="1"/>
  <rect class="px c6" x="13" y="8" width="1" height="1"/>
  <rect class="px c1" x="14" y="8" width="1" height="1"/>
  <rect class="px c2" x="15" y="8" width="1" height="1"/>
  <rect class="px c1" x="16" y="8" width="1" height="1"/>
  <rect class="px c2" x="17" y="8" width="1" height="1"/>
  <rect class="px c1" x="18" y="8" width="1" height="1"/>
  <rect class="px c1" x="4" y="9" width="1" height="1"/>
  <rect class="px c1" x="5" y="9" width="1" height="1"/>
  <rect class="px c2" x="6" y="9" width="1" height="1"/>
  <rect class="px c1" x="7" y="9" width="1" height="1"/>
  <rect class="px c6" x="8" y="9" width="1" height="1"/>
  <rect class="px c1" x="9" y="9" width="1" height="1"/>
  <rect class="px c2" x="10" y="9" width="1" height="1"/>
  <rect class="px c1" x="11" y="9" width="1" height="1"/>
  <rect class="px c1" x="12" y="9" width="1" height="1"/>
  <rect class="px c6" x="13" y="9" width="1" height="1"/>
  <rect class="px c6" x="14" y="9" width="1" height="1"/>
  <rect class="px c1" x="15" y="9" width="1" height="1"/>
  <rect class="px c5" x="16" y="9" width="1" height="1"/>
  <rect class="px c1" x="17" y="9" width="1" height="1"/>
  <rect class="px c1" x="5" y="10" width="1" height="1"/>
  <rect class="px c1" x="6" y="10" width="1" height="1"/>
  <rect class="px c5" x="7" y="10" width="1" height="1"/>
  <rect class="px c6" x="8" y="10" width="1" height="1"/>
  <rect class="px c6" x="9" y="10" width="1" height="1"/>
  <rect class="px c1" x="10" y="10" width="1" height="1"/>
  <rect class="px c1" x="11" y="10" width="1" height="1"/>
  <rect class="px c6" x="12" y="10" width="1" height="1"/>
  <rect class="px c6" x="13" y="10" width="1" height="1"/>
  <rect class="px c6" x="14" y="10" width="1" height="1"/>
  <rect class="px c6" x="15" y="10" width="1" height="1"/>
  <rect class="px c5" x="16" y="10" width="1" height="1"/>
  <rect class="px c5" x="7" y="11" width="1" height="1"/>
  <rect class="px c6" x="8" y="11" width="1" height="1"/>
  <rect class="px c6" x="9" y="11" width="1" height="1"/>
  <rect class="px c6" x="10" y="11" width="1" height="1"/>
  <rect class="px c6" x="11" y="11" width="1" height="1"/>
  <rect class="px c6" x="12" y="11" width="1" height="1"/>
  <rect class="px c6" x="13" y="11" width="1" height="1"/>
  <rect class="px c6" x="14" y="11" width="1" height="1"/>
  <rect class="px c6" x="15" y="11" width="1" height="1"/>
  <rect class="px c5" x="16" y="11" width="1" height="1"/>
  <rect class="px c5" x="6" y="12" width="1" height="1"/>
  <rect class="px c6" x="7" y="12" width="1" height="1"/>
  <rect class="px c6" x="8" y="12" width="1" height="1"/>
  <rect class="px c7" x="9" y="12" width="1" height="1"/>
  <rect class="px c7" x="10" y="12" width="1" height="1"/>
  <rect class="px c6" x="11" y="12" width="1" height="1"/>
  <rect class="px c6" x="12" y="12" width="1" height="1"/>
  <rect class="px c6" x="13" y="12" width="1" height="1"/>
  <rect class="px c7" x="14" y="12" width="1" height="1"/>
  <rect class="px c7" x="15" y="12" width="1" height="1"/>
  <rect class="px c5" x="16" y="12" width="1" height="1"/>
  <rect class="px c5" x="6" y="13" width="1" height="1"/>
  <rect class="px c6" x="7" y="13" width="1" height="1"/>
  <rect class="px c6" x="8" y="13" width="1" height="1"/>
  <rect class="px c5" x="9" y="13" width="1" height="1"/>
  <rect class="px c8" x="10" y="13" width="1" height="1"/>
  <rect class="px c6" x="11" y="13" width="1" height="1"/>
  <rect class="px c6" x="12" y="13" width="1" height="1"/>
  <rect class="px c6" x="13" y="13" width="1" height="1"/>
  <rect class="px c5" x="14" y="13" width="1" height="1"/>
  <rect class="px c8" x="15" y="13" width="1" height="1"/>
  <rect class="px c5" x="16" y="13" width="1" height="1"/>
  <rect class="px c5" x="6" y="14" width="1" height="1"/>
  <rect class="px c5" x="7" y="14" width="1" height="1"/>
  <rect class="px c6" x="8" y="14" width="1" height="1"/>
  <rect class="px c6" x="9" y="14" width="1" height="1"/>
  <rect class="px c6" x="10" y="14" width="1" height="1"/>
  <rect class="px c6" x="11" y="14" width="1" height="1"/>
  <rect class="px c6" x="12" y="14" width="1" height="1"/>
  <rect class="px c6" x="13" y="14" width="1" height="1"/>
  <rect class="px c6" x="14" y="14" width="1" height="1"/>
  <rect class="px c6" x="15" y="14" width="1" height="1"/>
  <rect class="px c5" x="16" y="14" width="1" height="1"/>
  <rect class="px c5" x="7" y="15" width="1" height="1"/>
  <rect class="px c6" x="8" y="15" width="1" height="1"/>
  <rect class="px c6" x="9" y="15" width="1" height="1"/>
  <rect class="px c6" x="10" y="15" width="1" height="1"/>
  <rect class="px c6" x="11" y="15" width="1" height="1"/>
  <rect class="px c6" x="12" y="15" width="1" height="1"/>
  <rect class="px c6" x="13" y="15" width="1" height="1"/>
  <rect class="px c6" x="14" y="15" width="1" height="1"/>
  <rect class="px c6" x="15" y="15" width="1" height="1"/>
  <rect class="px c5" x="16" y="15" width="1" height="1"/>
  <rect class="px c5" x="7" y="16" width="1" height="1"/>
  <rect class="px c6" x="8" y="16" width="1" height="1"/>
  <rect class="px c6" x="9" y="16" width="1" height="1"/>
  <rect class="px c6" x="10" y="16" width="1" height="1"/>
  <rect class="px c6" x="11" y="16" width="1" height="1"/>
  <rect class="px c5" x="12" y="16" width="1" height="1"/>
  <rect class="px c6" x="13" y="16" width="1" height="1"/>
  <rect class="px c6" x="14" y="16" width="1" height="1"/>
  <rect class="px c6" x="15" y="16" width="1" height="1"/>
  <rect class="px c5" x="16" y="16" width="1" height="1"/>
  <rect class="px c5" x="7" y="17" width="1" height="1"/>
  <rect class="px c6" x="8" y="17" width="1" height="1"/>
  <rect class="px c6" x="9" y="17" width="1" height="1"/>
  <rect class="px c6" x="10" y="17" width="1" height="1"/>
  <rect class="px c6" x="11" y="17" width="1" height="1"/>
  <rect class="px c6" x="12" y="17" width="1" height="1"/>
  <rect class="px c6" x="13" y="17" width="1" height="1"/>
  <rect class="px c6" x="14" y="17" width="1" height="1"/>
  <rect class="px c6" x="15" y="17" width="1" height="1"/>
  <rect class="px c5" x="16" y="17" width="1" height="1"/>
  <rect class="px c5" x="7" y="18" width="1" height="1"/>
  <rect class="px c6" x="8" y="18" width="1" height="1"/>
  <rect class="px c6" x="9" y="18" width="1" height="1"/>
  <rect class="px c6" x="10" y="18" width="1" height="1"/>
  <rect class="px c9" x="11" y="18" width="1" height="1"/>
  <rect class="px c9" x="12" y="18" width="1" height="1"/>
  <rect class="px c9" x="13" y="18" width="1" height="1"/>
  <rect class="px c6" x="14" y="18" width="1" height="1"/>
  <rect class="px c6" x="15" y="18" width="1" height="1"/>
  <rect class="px c5" x="16" y="18" width="1" height="1"/>
  <rect class="px c5" x="8" y="19" width="1" height="1"/>
  <rect class="px c6" x="9" y="19" width="1" height="1"/>
  <rect class="px c9" x="10" y="19" width="1" height="1"/>
  <rect class="px c6" x="11" y="19" width="1" height="1"/>
  <rect class="px c6" x="12" y="19" width="1" height="1"/>
  <rect class="px c6" x="13" y="19" width="1" height="1"/>
  <rect class="px c6" x="14" y="19" width="1" height="1"/>
  <rect class="px c5" x="15" y="19" width="1" height="1"/>
  <rect class="px c5" x="8" y="20" width="1" height="1"/>
  <rect class="px c6" x="9" y="20" width="1" height="1"/>
  <rect class="px c5" x="10" y="20" width="1" height="1"/>
  <rect class="px c6" x="11" y="20" width="1" height="1"/>
  <rect class="px c6" x="12" y="20" width="1" height="1"/>
  <rect class="px c6" x="13" y="20" width="1" height="1"/>
  <rect class="px c5" x="14" y="20" width="1" height="1"/>
  <rect class="px c5" x="8" y="21" width="1" height="1"/>
  <rect class="px c6" x="9" y="21" width="1" height="1"/>
  <rect class="px c6" x="10" y="21" width="1" height="1"/>
  <rect class="px c5" x="11" y="21" width="1" height="1"/>
  <rect class="px c5" x="12" y="21" width="1" height="1"/>
  <rect class="px c5" x="13" y="21" width="1" height="1"/>
  <rect class="px c5" x="8" y="22" width="1" height="1"/>
  <rect class="px c10" x="9" y="22" width="1" height="1"/>
  <rect class="px c10" x="10" y="22" width="1" height="1"/>
  <rect class="px c10" x="11" y="22" width="1" height="1"/>
  <rect class="px c5" x="12" y="22" width="1" height="1"/>
  <rect class="px c5" x="8" y="23" width="1" height="1"/>
  <rect class="px c6" x="9" y="23" width="1" height="1"/>
  <rect class="px c6" x="10" y="23" width="1" height="1"/>
  <rect class="px c6" x="11" y="23" width="1" height="1"/>
  <rect class="px c5" x="12" y="23" width="1" height="1"/>
</svg>
