<svg xmlns="http://www.w3.org/2000/svg" version="1.2"
    width="32px" height="32px" viewBox="0 0 32 32">
  <style>
    rect.c18 {  fill: #c2a888ff }  /*   9 pixel(s) */
    rect.c7 {  fill: #ffff0fff }  /*   9 pixel(s) */
    rect.c12 {  fill: #86581eff }  /*   4 pixel(s) */
    rect.c14 {  fill: #e4c49fff }  /*   8 pixel(s) */
    rect.c15 {  fill: #ff80aaff }  /*  18 pixel(s) */
    rect.c8 {  fill: #fa6b0dff }  /*   9 pixel(s) */
    rect.c13 {  fill: #b895d0ff }  /*  13 pixel(s) */
    rect.c16 {  fill: #ffdfdfff }  /*   6 pixel(s) */
    rect.c1 {  fill: #ffffffff }  /*  94 pixel(s) */
    rect.c5 {  fill: #443727ff }  /*   6 pixel(s) */
    rect.c9 {  fill: #f6000bff }  /*   9 pixel(s) */
    rect.c11 {  fill: #ae8b61ff }  /* 138 pixel(s) */
    rect.c10 {  fill: #6d573dff }  /*  21 pixel(s) */
    rect.c17 {  fill: #ff96b9ff }  /*  25 pixel(s) */
    rect.c2 {  fill: #000000ff }  /* 136 pixel(s) */
    rect.c3 {  fill: #2bffffff }  /*   5 pixel(s) */
    rect.c4 {  fill: #f841ffff }  /*   1 pixel(s) */
    rect.c6 {  fill: #2cff0bff }  /*   5 pixel(s) */
    rect.px {  shape-rendering: crispEdges  }
  </style>
  <rect class="px c1" x="21" y="3" width="1" height="1"/>
  <rect class="px c2" x="18" y="4" width="1" height="1"/>
  <rect class="px c2" x="19" y="4" width="1" height="1"/>
  <rect class="px c1" x="20" y="4" width="1" height="1"/>
  <rect class="px c1" x="21" y="4" width="1" height="1"/>
  <rect class="px c2" x="6" y="5" width="1" height="1"/>
  <rect class="px c2" x="7" y="5" width="1" height="1"/>
  <rect class="px c2" x="15" y="5" width="1" height="1"/>
  <rect class="px c2" x="16" y="5" width="1" height="1"/>
  <rect class="px c2" x="17" y="5" width="1" height="1"/>
  <rect class="px c3" x="18" y="5" width="1" height="1"/>
  <rect class="px c4" x="19" y="5" width="1" height="1"/>
  <rect class="px c2" x="20" y="5" width="1" height="1"/>
  <rect class="px c1" x="21" y="5" width="1" height="1"/>
  <rect class="px c2" x="6" y="6" width="1" height="1"/>
  <rect class="px c5" x="7" y="6" width="1" height="1"/>
  <rect class="px c2" x="8" y="6" width="1" height="1"/>
  <rect class="px c2" x="13" y="6" width="1" height="1"/>
  <rect class="px c2" x="14" y="6" width="1" height="1"/>
  <rect class="px c2" x="15" y="6" width="1" height="1"/>
  <rect class="px c6" x="16" y="6" width="1" height="1"/>
  <rect class="px c3" x="17" y="6" width="1" height="1"/>
  <rect class="px c3" x="18" y="6" width="1" height="1"/>
  <rect class="px c3" x="19" y="6" width="1" height="1"/>
  <rect class="px c2" x="20" y="6" width="1" height="1"/>
  <rect class="px c2" x="6" y="7" width="1" height="1"/>
  <rect class="px c5" x="7" y="7" width="1" height="1"/>
  <rect class="px c2" x="8" y="7" width="1" height="1"/>
  <rect class="px c2" x="12" y="7" width="1" height="1"/>
  <rect class="px c7" x="13" y="7" width="1" height="1"/>
  <rect class="px c7" x="14" y="7" width="1" height="1"/>
  <rect class="px c7" x="15" y="7" width="1" height="1"/>
  <rect class="px c6" x="16" y="7" width="1" height="1"/>
  <rect class="px c6" x="17" y="7" width="1" height="1"/>
  <rect class="px c6" x="18" y="7" width="1" height="1"/>
  <rect class="px c3" x="19" y="7" width="1" height="1"/>
  <rect class="px c2" x="20" y="7" width="1" height="1"/>
  <rect class="px c2" x="6" y="8" width="1" height="1"/>
  <rect class="px c5" x="7" y="8" width="1" height="1"/>
  <rect class="px c5" x="8" y="8" width="1" height="1"/>
  <rect class="px c2" x="9" y="8" width="1" height="1"/>
  <rect class="px c2" x="11" y="8" width="1" height="1"/>
  <rect class="px c8" x="12" y="8" width="1" height="1"/>
  <rect class="px c8" x="13" y="8" width="1" height="1"/>
  <rect class="px c8" x="14" y="8" width="1" height="1"/>
  <rect class="px c7" x="15" y="8" width="1" height="1"/>
  <rect class="px c7" x="16" y="8" width="1" height="1"/>
  <rect class="px c7" x="17" y="8" width="1" height="1"/>
  <rect class="px c7" x="18" y="8" width="1" height="1"/>
  <rect class="px c6" x="19" y="8" width="1" height="1"/>
  <rect class="px c2" x="20" y="8" width="1" height="1"/>
  <rect class="px c2" x="6" y="9" width="1" height="1"/>
  <rect class="px c5" x="7" y="9" width="1" height="1"/>
  <rect class="px c2" x="8" y="9" width="1" height="1"/>
  <rect class="px c2" x="9" y="9" width="1" height="1"/>
  <rect class="px c2" x="10" y="9" width="1" height="1"/>
  <rect class="px c2" x="11" y="9" width="1" height="1"/>
  <rect class="px c9" x="12" y="9" width="1" height="1"/>
  <rect class="px c9" x="13" y="9" width="1" height="1"/>
  <rect class="px c8" x="14" y="9" width="1" height="1"/>
  <rect class="px c8" x="15" y="9" width="1" height="1"/>
  <rect class="px c8" x="16" y="9" width="1" height="1"/>
  <rect class="px c8" x="17" y="9" width="1" height="1"/>
  <rect class="px c7" x="18" y="9" width="1" height="1"/>
  <rect class="px c7" x="19" y="9" width="1" height="1"/>
  <rect class="px c2" x="20" y="9" width="1" height="1"/>
  <rect class="px c2" x="6" y="10" width="1" height="1"/>
  <rect class="px c10" x="7" y="10" width="1" height="1"/>
  <rect class="px c10" x="8" y="10" width="1" height="1"/>
  <rect class="px c10" x="9" y="10" width="1" height="1"/>
  <rect class="px c10" x="10" y="10" width="1" height="1"/>
  <rect class="px c10" x="11" y="10" width="1" height="1"/>
  <rect class="px c2" x="12" y="10" width="1" height="1"/>
  <rect class="px c9" x="13" y="10" width="1" height="1"/>
  <rect class="px c9" x="14" y="10" width="1" height="1"/>
  <rect class="px c9" x="15" y="10" width="1" height="1"/>
  <rect class="px c9" x="16" y="10" width="1" height="1"/>
  <rect class="px c8" x="17" y="10" width="1" height="1"/>
  <rect class="px c8" x="18" y="10" width="1" height="1"/>
  <rect class="px c2" x="19" y="10" width="1" height="1"/>
  <rect class="px c2" x="5" y="11" width="1" height="1"/>
  <rect class="px c10" x="6" y="11" width="1" height="1"/>
  <rect class="px c10" x="7" y="11" width="1" height="1"/>
  <rect class="px c11" x="8" y="11" width="1" height="1"/>
  <rect class="px c11" x="9" y="11" width="1" height="1"/>
  <rect class="px c11" x="10" y="11" width="1" height="1"/>
  <rect class="px c11" x="11" y="11" width="1" height="1"/>
  <rect class="px c11" x="12" y="11" width="1" height="1"/>
  <rect class="px c2" x="13" y="11" width="1" height="1"/>
  <rect class="px c2" x="14" y="11" width="1" height="1"/>
  <rect class="px c2" x="15" y="11" width="1" height="1"/>
  <rect class="px c9" x="16" y="11" width="1" height="1"/>
  <rect class="px c9" x="17" y="11" width="1" height="1"/>
  <rect class="px c9" x="18" y="11" width="1" height="1"/>
  <rect class="px c2" x="19" y="11" width="1" height="1"/>
  <rect class="px c2" x="5" y="12" width="1" height="1"/>
  <rect class="px c10" x="6" y="12" width="1" height="1"/>
  <rect class="px c11" x="7" y="12" width="1" height="1"/>
  <rect class="px c11" x="8" y="12" width="1" height="1"/>
  <rect class="px c11" x="9" y="12" width="1" height="1"/>
  <rect class="px c11" x="10" y="12" width="1" height="1"/>
  <rect class="px c11" x="11" y="12" width="1" height="1"/>
  <rect class="px c11" x="12" y="12" width="1" height="1"/>
  <rect class="px c11" x="13" y="12" width="1" height="1"/>
  <rect class="px c11" x="14" y="12" width="1" height="1"/>
  <rect class="px c11" x="15" y="12" width="1" height="1"/>
  <rect class="px c2" x="16" y="12" width="1" height="1"/>
  <rect class="px c2" x="17" y="12" width="1" height="1"/>
  <rect class="px c2" x="18" y="12" width="1" height="1"/>
  <rect class="px c2" x="19" y="12" width="1" height="1"/>
  <rect class="px c2" x="5" y="13" width="1" height="1"/>
  <rect class="px c10" x="6" y="13" width="1" height="1"/>
  <rect class="px c11" x="7" y="13" width="1" height="1"/>
  <rect class="px c11" x="8" y="13" width="1" height="1"/>
  <rect class="px c11" x="9" y="13" width="1" height="1"/>
  <rect class="px c11" x="10" y="13" width="1" height="1"/>
  <rect class="px c11" x="11" y="13" width="1" height="1"/>
  <rect class="px c11" x="12" y="13" width="1" height="1"/>
  <rect class="px c11" x="13" y="13" width="1" height="1"/>
  <rect class="px c11" x="14" y="13" width="1" height="1"/>
  <rect class="px c11" x="15" y="13" width="1" height="1"/>
  <rect class="px c11" x="16" y="13" width="1" height="1"/>
  <rect class="px c11" x="17" y="13" width="1" height="1"/>
  <rect class="px c11" x="18" y="13" width="1" height="1"/>
  <rect class="px c2" x="19" y="13" width="1" height="1"/>
  <rect class="px c2" x="5" y="14" width="1" height="1"/>
  <rect class="px c10" x="6" y="14" width="1" height="1"/>
  <rect class="px c12" x="7" y="14" width="1" height="1"/>
  <rect class="px c12" x="8" y="14" width="1" height="1"/>
  <rect class="px c11" x="9" y="14" width="1" height="1"/>
  <rect class="px c11" x="10" y="14" width="1" height="1"/>
  <rect class="px c12" x="11" y="14" width="1" height="1"/>
  <rect class="px c12" x="12" y="14" width="1" height="1"/>
  <rect class="px c11" x="13" y="14" width="1" height="1"/>
  <rect class="px c1" x="14" y="14" width="1" height="1"/>
  <rect class="px c1" x="15" y="14" width="1" height="1"/>
  <rect class="px c1" x="16" y="14" width="1" height="1"/>
  <rect class="px c11" x="17" y="14" width="1" height="1"/>
  <rect class="px c11" x="18" y="14" width="1" height="1"/>
  <rect class="px c11" x="19" y="14" width="1" height="1"/>
  <rect class="px c2" x="20" y="14" width="1" height="1"/>
  <rect class="px c2" x="4" y="15" width="1" height="1"/>
  <rect class="px c13" x="5" y="15" width="1" height="1"/>
  <rect class="px c14" x="6" y="15" width="1" height="1"/>
  <rect class="px c1" x="7" y="15" width="1" height="1"/>
  <rect class="px c2" x="8" y="15" width="1" height="1"/>
  <rect class="px c14" x="9" y="15" width="1" height="1"/>
  <rect class="px c14" x="10" y="15" width="1" height="1"/>
  <rect class="px c1" x="11" y="15" width="1" height="1"/>
  <rect class="px c2" x="12" y="15" width="1" height="1"/>
  <rect class="px c14" x="13" y="15" width="1" height="1"/>
  <rect class="px c1" x="14" y="15" width="1" height="1"/>
  <rect class="px c1" x="15" y="15" width="1" height="1"/>
  <rect class="px c1" x="16" y="15" width="1" height="1"/>
  <rect class="px c1" x="17" y="15" width="1" height="1"/>
  <rect class="px c11" x="18" y="15" width="1" height="1"/>
  <rect class="px c11" x="19" y="15" width="1" height="1"/>
  <rect class="px c2" x="20" y="15" width="1" height="1"/>
  <rect class="px c2" x="3" y="16" width="1" height="1"/>
  <rect class="px c13" x="4" y="16" width="1" height="1"/>
  <rect class="px c1" x="5" y="16" width="1" height="1"/>
  <rect class="px c1" x="6" y="16" width="1" height="1"/>
  <rect class="px c14" x="7" y="16" width="1" height="1"/>
  <rect class="px c14" x="8" y="16" width="1" height="1"/>
  <rect class="px c1" x="9" y="16" width="1" height="1"/>
  <rect class="px c1" x="10" y="16" width="1" height="1"/>
  <rect class="px c14" x="11" y="16" width="1" height="1"/>
  <rect class="px c14" x="12" y="16" width="1" height="1"/>
  <rect class="px c1" x="13" y="16" width="1" height="1"/>
  <rect class="px c1" x="14" y="16" width="1" height="1"/>
  <rect class="px c1" x="15" y="16" width="1" height="1"/>
  <rect class="px c1" x="16" y="16" width="1" height="1"/>
  <rect class="px c1" x="17" y="16" width="1" height="1"/>
  <rect class="px c1" x="18" y="16" width="1" height="1"/>
  <rect class="px c11" x="19" y="16" width="1" height="1"/>
  <rect class="px c2" x="20" y="16" width="1" height="1"/>
  <rect class="px c15" x="3" y="17" width="1" height="1"/>
  <rect class="px c15" x="4" y="17" width="1" height="1"/>
  <rect class="px c15" x="5" y="17" width="1" height="1"/>
  <rect class="px c15" x="6" y="17" width="1" height="1"/>
  <rect class="px c1" x="7" y="17" width="1" height="1"/>
  <rect class="px c1" x="8" y="17" width="1" height="1"/>
  <rect class="px c2" x="9" y="17" width="1" height="1"/>
  <rect class="px c1" x="10" y="17" width="1" height="1"/>
  <rect class="px c1" x="11" y="17" width="1" height="1"/>
  <rect class="px c1" x="12" y="17" width="1" height="1"/>
  <rect class="px c1" x="13" y="17" width="1" height="1"/>
  <rect class="px c16" x="14" y="17" width="1" height="1"/>
  <rect class="px c16" x="15" y="17" width="1" height="1"/>
  <rect class="px c16" x="16" y="17" width="1" height="1"/>
  <rect class="px c1" x="17" y="17" width="1" height="1"/>
  <rect class="px c1" x="18" y="17" width="1" height="1"/>
  <rect class="px c11" x="19" y="17" width="1" height="1"/>
  <rect class="px c2" x="20" y="17" width="1" height="1"/>
  <rect class="px c15" x="2" y="18" width="1" height="1"/>
  <rect class="px c17" x="3" y="18" width="1" height="1"/>
  <rect class="px c17" x="4" y="18" width="1" height="1"/>
  <rect class="px c17" x="5" y="18" width="1" height="1"/>
  <rect class="px c17" x="6" y="18" width="1" height="1"/>
  <rect class="px c15" x="7" y="18" width="1" height="1"/>
  <rect class="px c1" x="8" y="18" width="1" height="1"/>
  <rect class="px c1" x="9" y="18" width="1" height="1"/>
  <rect class="px c1" x="10" y="18" width="1" height="1"/>
  <rect class="px c2" x="11" y="18" width="1" height="1"/>
  <rect class="px c1" x="12" y="18" width="1" height="1"/>
  <rect class="px c1" x="13" y="18" width="1" height="1"/>
  <rect class="px c16" x="14" y="18" width="1" height="1"/>
  <rect class="px c16" x="15" y="18" width="1" height="1"/>
  <rect class="px c1" x="16" y="18" width="1" height="1"/>
  <rect class="px c1" x="17" y="18" width="1" height="1"/>
  <rect class="px c1" x="18" y="18" width="1" height="1"/>
  <rect class="px c11" x="19" y="18" width="1" height="1"/>
  <rect class="px c11" x="20" y="18" width="1" height="1"/>
  <rect class="px c2" x="21" y="18" width="1" height="1"/>
  <rect class="px c15" x="1" y="19" width="1" height="1"/>
  <rect class="px c17" x="2" y="19" width="1" height="1"/>
  <rect class="px c17" x="3" y="19" width="1" height="1"/>
  <rect class="px c17" x="4" y="19" width="1" height="1"/>
  <rect class="px c17" x="5" y="19" width="1" height="1"/>
  <rect class="px c1" x="6" y="19" width="1" height="1"/>
  <rect class="px c17" x="7" y="19" width="1" height="1"/>
  <rect class="px c15" x="8" y="19" width="1" height="1"/>
  <rect class="px c2" x="9" y="19" width="1" height="1"/>
  <rect class="px c2" x="10" y="19" width="1" height="1"/>
  <rect class="px c1" x="11" y="19" width="1" height="1"/>
  <rect class="px c1" x="12" y="19" width="1" height="1"/>
  <rect class="px c1" x="13" y="19" width="1" height="1"/>
  <rect class="px c16" x="14" y="19" width="1" height="1"/>
  <rect class="px c1" x="15" y="19" width="1" height="1"/>
  <rect class="px c1" x="16" y="19" width="1" height="1"/>
  <rect class="px c1" x="17" y="19" width="1" height="1"/>
  <rect class="px c11" x="18" y="19" width="1" height="1"/>
  <rect class="px c11" x="19" y="19" width="1" height="1"/>
  <rect class="px c11" x="20" y="19" width="1" height="1"/>
  <rect class="px c11" x="21" y="19" width="1" height="1"/>
  <rect class="px c2" x="22" y="19" width="1" height="1"/>
  <rect class="px c2" x="23" y="19" width="1" height="1"/>
  <rect class="px c2" x="26" y="19" width="1" height="1"/>
  <rect class="px c2" x="27" y="19" width="1" height="1"/>
  <rect class="px c2" x="28" y="19" width="1" height="1"/>
  <rect class="px c15" x="1" y="20" width="1" height="1"/>
  <rect class="px c17" x="2" y="20" width="1" height="1"/>
  <rect class="px c17" x="3" y="20" width="1" height="1"/>
  <rect class="px c17" x="4" y="20" width="1" height="1"/>
  <rect class="px c17" x="5" y="20" width="1" height="1"/>
  <rect class="px c17" x="6" y="20" width="1" height="1"/>
  <rect class="px c1" x="7" y="20" width="1" height="1"/>
  <rect class="px c17" x="8" y="20" width="1" height="1"/>
  <rect class="px c15" x="9" y="20" width="1" height="1"/>
  <rect class="px c2" x="10" y="20" width="1" height="1"/>
  <rect class="px c1" x="11" y="20" width="1" height="1"/>
  <rect class="px c1" x="12" y="20" width="1" height="1"/>
  <rect class="px c1" x="13" y="20" width="1" height="1"/>
  <rect class="px c1" x="14" y="20" width="1" height="1"/>
  <rect class="px c1" x="15" y="20" width="1" height="1"/>
  <rect class="px c1" x="16" y="20" width="1" height="1"/>
  <rect class="px c11" x="17" y="20" width="1" height="1"/>
  <rect class="px c11" x="18" y="20" width="1" height="1"/>
  <rect class="px c11" x="19" y="20" width="1" height="1"/>
  <rect class="px c18" x="20" y="20" width="1" height="1"/>
  <rect class="px c11" x="21" y="20" width="1" height="1"/>
  <rect class="px c11" x="22" y="20" width="1" height="1"/>
  <rect class="px c11" x="23" y="20" width="1" height="1"/>
  <rect class="px c2" x="24" y="20" width="1" height="1"/>
  <rect class="px c2" x="25" y="20" width="1" height="1"/>
  <rect class="px c1" x="26" y="20" width="1" height="1"/>
  <rect class="px c1" x="27" y="20" width="1" height="1"/>
  <rect class="px c1" x="28" y="20" width="1" height="1"/>
  <rect class="px c2" x="29" y="20" width="1" height="1"/>
  <rect class="px c15" x="1" y="21" width="1" height="1"/>
  <rect class="px c17" x="2" y="21" width="1" height="1"/>
  <rect class="px c17" x="3" y="21" width="1" height="1"/>
  <rect class="px c17" x="4" y="21" width="1" height="1"/>
  <rect class="px c17" x="5" y="21" width="1" height="1"/>
  <rect class="px c17" x="6" y="21" width="1" height="1"/>
  <rect class="px c17" x="7" y="21" width="1" height="1"/>
  <rect class="px c15" x="8" y="21" width="1" height="1"/>
  <rect class="px c2" x="9" y="21" width="1" height="1"/>
  <rect class="px c1" x="10" y="21" width="1" height="1"/>
  <rect class="px c1" x="11" y="21" width="1" height="1"/>
  <rect class="px c1" x="12" y="21" width="1" height="1"/>
  <rect class="px c1" x="13" y="21" width="1" height="1"/>
  <rect class="px c1" x="14" y="21" width="1" height="1"/>
  <rect class="px c1" x="15" y="21" width="1" height="1"/>
  <rect class="px c11" x="16" y="21" width="1" height="1"/>
  <rect class="px c11" x="17" y="21" width="1" height="1"/>
  <rect class="px c11" x="18" y="21" width="1" height="1"/>
  <rect class="px c11" x="19" y="21" width="1" height="1"/>
  <rect class="px c11" x="20" y="21" width="1" height="1"/>
  <rect class="px c18" x="21" y="21" width="1" height="1"/>
  <rect class="px c18" x="22" y="21" width="1" height="1"/>
  <rect class="px c11" x="23" y="21" width="1" height="1"/>
  <rect class="px c11" x="24" y="21" width="1" height="1"/>
  <rect class="px c2" x="25" y="21" width="1" height="1"/>
  <rect class="px c13" x="26" y="21" width="1" height="1"/>
  <rect class="px c1" x="27" y="21" width="1" height="1"/>
  <rect class="px c11" x="28" y="21" width="1" height="1"/>
  <rect class="px c11" x="29" y="21" width="1" height="1"/>
  <rect class="px c2" x="30" y="21" width="1" height="1"/>
  <rect class="px c15" x="2" y="22" width="1" height="1"/>
  <rect class="px c17" x="3" y="22" width="1" height="1"/>
  <rect class="px c17" x="4" y="22" width="1" height="1"/>
  <rect class="px c17" x="5" y="22" width="1" height="1"/>
  <rect class="px c17" x="6" y="22" width="1" height="1"/>
  <rect class="px c15" x="7" y="22" width="1" height="1"/>
  <rect class="px c13" x="8" y="22" width="1" height="1"/>
  <rect class="px c1" x="9" y="22" width="1" height="1"/>
  <rect class="px c1" x="10" y="22" width="1" height="1"/>
  <rect class="px c1" x="11" y="22" width="1" height="1"/>
  <rect class="px c1" x="12" y="22" width="1" height="1"/>
  <rect class="px c1" x="13" y="22" width="1" height="1"/>
  <rect class="px c1" x="14" y="22" width="1" height="1"/>
  <rect class="px c11" x="15" y="22" width="1" height="1"/>
  <rect class="px c11" x="16" y="22" width="1" height="1"/>
  <rect class="px c11" x="17" y="22" width="1" height="1"/>
  <rect class="px c11" x="18" y="22" width="1" height="1"/>
  <rect class="px c11" x="19" y="22" width="1" height="1"/>
  <rect class="px c11" x="20" y="22" width="1" height="1"/>
  <rect class="px c11" x="21" y="22" width="1" height="1"/>
  <rect class="px c11" x="22" y="22" width="1" height="1"/>
  <rect class="px c11" x="23" y="22" width="1" height="1"/>
  <rect class="px c11" x="24" y="22" width="1" height="1"/>
  <rect class="px c11" x="25" y="22" width="1" height="1"/>
  <rect class="px c2" x="26" y="22" width="1" height="1"/>
  <rect class="px c10" x="27" y="22" width="1" height="1"/>
  <rect class="px c10" x="28" y="22" width="1" height="1"/>
  <rect class="px c11" x="29" y="22" width="1" height="1"/>
  <rect class="px c2" x="30" y="22" width="1" height="1"/>
  <rect class="px c15" x="3" y="23" width="1" height="1"/>
  <rect class="px c15" x="4" y="23" width="1" height="1"/>
  <rect class="px c15" x="5" y="23" width="1" height="1"/>
  <rect class="px c15" x="6" y="23" width="1" height="1"/>
  <rect class="px c2" x="8" y="23" width="1" height="1"/>
  <rect class="px c13" x="9" y="23" width="1" height="1"/>
  <rect class="px c13" x="10" y="23" width="1" height="1"/>
  <rect class="px c13" x="11" y="23" width="1" height="1"/>
  <rect class="px c1" x="12" y="23" width="1" height="1"/>
  <rect class="px c1" x="13" y="23" width="1" height="1"/>
  <rect class="px c11" x="14" y="23" width="1" height="1"/>
  <rect class="px c11" x="15" y="23" width="1" height="1"/>
  <rect class="px c11" x="16" y="23" width="1" height="1"/>
  <rect class="px c11" x="17" y="23" width="1" height="1"/>
  <rect class="px c11" x="18" y="23" width="1" height="1"/>
  <rect class="px c11" x="19" y="23" width="1" height="1"/>
  <rect class="px c11" x="20" y="23" width="1" height="1"/>
  <rect class="px c11" x="21" y="23" width="1" height="1"/>
  <rect class="px c11" x="22" y="23" width="1" height="1"/>
  <rect class="px c11" x="23" y="23" width="1" height="1"/>
  <rect class="px c11" x="24" y="23" width="1" height="1"/>
  <rect class="px c11" x="25" y="23" width="1" height="1"/>
  <rect class="px c2" x="26" y="23" width="1" height="1"/>
  <rect class="px c10" x="27" y="23" width="1" height="1"/>
  <rect class="px c10" x="28" y="23" width="1" height="1"/>
  <rect class="px c10" x="29" y="23" width="1" height="1"/>
  <rect class="px c2" x="30" y="23" width="1" height="1"/>
  <rect class="px c2" x="8" y="24" width="1" height="1"/>
  <rect class="px c13" x="9" y="24" width="1" height="1"/>
  <rect class="px c1" x="10" y="24" width="1" height="1"/>
  <rect class="px c1" x="11" y="24" width="1" height="1"/>
  <rect class="px c1" x="12" y="24" width="1" height="1"/>
  <rect class="px c1" x="13" y="24" width="1" height="1"/>
  <rect class="px c2" x="14" y="24" width="1" height="1"/>
  <rect class="px c11" x="15" y="24" width="1" height="1"/>
  <rect class="px c11" x="16" y="24" width="1" height="1"/>
  <rect class="px c11" x="17" y="24" width="1" height="1"/>
  <rect class="px c11" x="18" y="24" width="1" height="1"/>
  <rect class="px c11" x="19" y="24" width="1" height="1"/>
  <rect class="px c11" x="20" y="24" width="1" height="1"/>
  <rect class="px c11" x="21" y="24" width="1" height="1"/>
  <rect class="px c11" x="22" y="24" width="1" height="1"/>
  <rect class="px c2" x="23" y="24" width="1" height="1"/>
  <rect class="px c2" x="24" y="24" width="1" height="1"/>
  <rect class="px c11" x="25" y="24" width="1" height="1"/>
  <rect class="px c11" x="26" y="24" width="1" height="1"/>
  <rect class="px c2" x="27" y="24" width="1" height="1"/>
  <rect class="px c10" x="28" y="24" width="1" height="1"/>
  <rect class="px c10" x="29" y="24" width="1" height="1"/>
  <rect class="px c2" x="30" y="24" width="1" height="1"/>
  <rect class="px c2" x="9" y="25" width="1" height="1"/>
  <rect class="px c13" x="10" y="25" width="1" height="1"/>
  <rect class="px c1" x="11" y="25" width="1" height="1"/>
  <rect class="px c1" x="12" y="25" width="1" height="1"/>
  <rect class="px c1" x="13" y="25" width="1" height="1"/>
  <rect class="px c2" x="14" y="25" width="1" height="1"/>
  <rect class="px c11" x="15" y="25" width="1" height="1"/>
  <rect class="px c11" x="16" y="25" width="1" height="1"/>
  <rect class="px c11" x="17" y="25" width="1" height="1"/>
  <rect class="px c11" x="18" y="25" width="1" height="1"/>
  <rect class="px c11" x="19" y="25" width="1" height="1"/>
  <rect class="px c11" x="20" y="25" width="1" height="1"/>
  <rect class="px c11" x="21" y="25" width="1" height="1"/>
  <rect class="px c2" x="22" y="25" width="1" height="1"/>
  <rect class="px c11" x="23" y="25" width="1" height="1"/>
  <rect class="px c11" x="24" y="25" width="1" height="1"/>
  <rect class="px c11" x="25" y="25" width="1" height="1"/>
  <rect class="px c11" x="26" y="25" width="1" height="1"/>
  <rect class="px c2" x="27" y="25" width="1" height="1"/>
  <rect class="px c10" x="28" y="25" width="1" height="1"/>
  <rect class="px c10" x="29" y="25" width="1" height="1"/>
  <rect class="px c2" x="30" y="25" width="1" height="1"/>
  <rect class="px c2" x="9" y="26" width="1" height="1"/>
  <rect class="px c13" x="10" y="26" width="1" height="1"/>
  <rect class="px c1" x="11" y="26" width="1" height="1"/>
  <rect class="px c1" x="12" y="26" width="1" height="1"/>
  <rect class="px c1" x="13" y="26" width="1" height="1"/>
  <rect class="px c2" x="14" y="26" width="1" height="1"/>
  <rect class="px c11" x="15" y="26" width="1" height="1"/>
  <rect class="px c11" x="16" y="26" width="1" height="1"/>
  <rect class="px c2" x="17" y="26" width="1" height="1"/>
  <rect class="px c11" x="18" y="26" width="1" height="1"/>
  <rect class="px c11" x="19" y="26" width="1" height="1"/>
  <rect class="px c11" x="20" y="26" width="1" height="1"/>
  <rect class="px c2" x="21" y="26" width="1" height="1"/>
  <rect class="px c11" x="22" y="26" width="1" height="1"/>
  <rect class="px c11" x="23" y="26" width="1" height="1"/>
  <rect class="px c11" x="24" y="26" width="1" height="1"/>
  <rect class="px c11" x="25" y="26" width="1" height="1"/>
  <rect class="px c11" x="26" y="26" width="1" height="1"/>
  <rect class="px c2" x="27" y="26" width="1" height="1"/>
  <rect class="px c10" x="28" y="26" width="1" height="1"/>
  <rect class="px c2" x="29" y="26" width="1" height="1"/>
  <rect class="px c2" x="9" y="27" width="1" height="1"/>
  <rect class="px c2" x="10" y="27" width="1" height="1"/>
  <rect class="px c13" x="11" y="27" width="1" height="1"/>
  <rect class="px c1" x="12" y="27" width="1" height="1"/>
  <rect class="px c1" x="13" y="27" width="1" height="1"/>
  <rect class="px c2" x="14" y="27" width="1" height="1"/>
  <rect class="px c11" x="15" y="27" width="1" height="1"/>
  <rect class="px c11" x="16" y="27" width="1" height="1"/>
  <rect class="px c2" x="17" y="27" width="1" height="1"/>
  <rect class="px c18" x="18" y="27" width="1" height="1"/>
  <rect class="px c11" x="19" y="27" width="1" height="1"/>
  <rect class="px c11" x="20" y="27" width="1" height="1"/>
  <rect class="px c2" x="21" y="27" width="1" height="1"/>
  <rect class="px c11" x="22" y="27" width="1" height="1"/>
  <rect class="px c11" x="23" y="27" width="1" height="1"/>
  <rect class="px c11" x="24" y="27" width="1" height="1"/>
  <rect class="px c11" x="25" y="27" width="1" height="1"/>
  <rect class="px c11" x="26" y="27" width="1" height="1"/>
  <rect class="px c11" x="27" y="27" width="1" height="1"/>
  <rect class="px c2" x="28" y="27" width="1" height="1"/>
  <rect class="px c2" x="29" y="27" width="1" height="1"/>
  <rect class="px c2" x="9" y="28" width="1" height="1"/>
  <rect class="px c2" x="10" y="28" width="1" height="1"/>
  <rect class="px c2" x="11" y="28" width="1" height="1"/>
  <rect class="px c13" x="12" y="28" width="1" height="1"/>
  <rect class="px c1" x="13" y="28" width="1" height="1"/>
  <rect class="px c2" x="14" y="28" width="1" height="1"/>
  <rect class="px c11" x="15" y="28" width="1" height="1"/>
  <rect class="px c2" x="16" y="28" width="1" height="1"/>
  <rect class="px c1" x="17" y="28" width="1" height="1"/>
  <rect class="px c1" x="18" y="28" width="1" height="1"/>
  <rect class="px c18" x="19" y="28" width="1" height="1"/>
  <rect class="px c18" x="20" y="28" width="1" height="1"/>
  <rect class="px c2" x="21" y="28" width="1" height="1"/>
  <rect class="px c11" x="22" y="28" width="1" height="1"/>
  <rect class="px c11" x="23" y="28" width="1" height="1"/>
  <rect class="px c11" x="24" y="28" width="1" height="1"/>
  <rect class="px c11" x="25" y="28" width="1" height="1"/>
  <rect class="px c11" x="26" y="28" width="1" height="1"/>
  <rect class="px c11" x="27" y="28" width="1" height="1"/>
  <rect class="px c2" x="28" y="28" width="1" height="1"/>
  <rect class="px c2" x="9" y="29" width="1" height="1"/>
  <rect class="px c5" x="10" y="29" width="1" height="1"/>
  <rect class="px c2" x="11" y="29" width="1" height="1"/>
  <rect class="px c2" x="12" y="29" width="1" height="1"/>
  <rect class="px c13" x="13" y="29" width="1" height="1"/>
  <rect class="px c2" x="14" y="29" width="1" height="1"/>
  <rect class="px c11" x="15" y="29" width="1" height="1"/>
  <rect class="px c2" x="16" y="29" width="1" height="1"/>
  <rect class="px c1" x="17" y="29" width="1" height="1"/>
  <rect class="px c1" x="18" y="29" width="1" height="1"/>
  <rect class="px c1" x="19" y="29" width="1" height="1"/>
  <rect class="px c1" x="20" y="29" width="1" height="1"/>
  <rect class="px c18" x="21" y="29" width="1" height="1"/>
  <rect class="px c2" x="22" y="29" width="1" height="1"/>
  <rect class="px c2" x="23" y="29" width="1" height="1"/>
  <rect class="px c11" x="24" y="29" width="1" height="1"/>
  <rect class="px c11" x="25" y="29" width="1" height="1"/>
  <rect class="px c11" x="26" y="29" width="1" height="1"/>
  <rect class="px c11" x="27" y="29" width="1" height="1"/>
  <rect class="px c2" x="28" y="29" width="1" height="1"/>
  <rect class="px c2" x="9" y="30" width="1" height="1"/>
  <rect class="px c10" x="10" y="30" width="1" height="1"/>
  <rect class="px c2" x="11" y="30" width="1" height="1"/>
  <rect class="px c2" x="13" y="30" width="1" height="1"/>
  <rect class="px c2" x="14" y="30" width="1" height="1"/>
  <rect class="px c18" x="15" y="30" width="1" height="1"/>
  <rect class="px c2" x="16" y="30" width="1" height="1"/>
  <rect class="px c1" x="17" y="30" width="1" height="1"/>
  <rect class="px c1" x="18" y="30" width="1" height="1"/>
  <rect class="px c1" x="19" y="30" width="1" height="1"/>
  <rect class="px c1" x="20" y="30" width="1" height="1"/>
  <rect class="px c2" x="21" y="30" width="1" height="1"/>
  <rect class="px c18" x="22" y="30" width="1" height="1"/>
  <rect class="px c11" x="23" y="30" width="1" height="1"/>
  <rect class="px c11" x="24" y="30" width="1" height="1"/>
  <rect class="px c11" x="25" y="30" width="1" height="1"/>
  <rect class="px c11" x="26" y="30" width="1" height="1"/>
  <rect class="px c2" x="27" y="30" width="1" height="1"/>
  <rect class="px c2" x="9" y="31" width="1" height="1"/>
  <rect class="px c2" x="10" y="31" width="1" height="1"/>
  <rect class="px c2" x="11" y="31" width="1" height="1"/>
  <rect class="px c2" x="14" y="31" width="1" height="1"/>
  <rect class="px c2" x="15" y="31" width="1" height="1"/>
  <rect class="px c2" x="16" y="31" width="1" height="1"/>
  <rect class="px c2" x="17" y="31" width="1" height="1"/>
  <rect class="px c2" x="18" y="31" width="1" height="1"/>
  <rect class="px c2" x="19" y="31" width="1" height="1"/>
  <rect class="px c2" x="20" y="31" width="1" height="1"/>
  <rect class="px c2" x="21" y="31" width="1" height="1"/>
  <rect class="px c2" x="22" y="31" width="1" height="1"/>
  <rect class="px c2" x="23" y="31" width="1" height="1"/>
  <rect class="px c2" x="24" y="31" width="1" height="1"/>
  <rect class="px c2" x="25" y="31" width="1" height="1"/>
  <rect class="px c2" x="26" y="31" width="1" height="1"/>
</svg>
