<svg xmlns="http://www.w3.org/2000/svg" version="1.2"
    width="32px" height="32px" viewBox="0 0 32 32">
  <style>
    rect.c1 {  fill: #000000ff }  /* 128 pixel(s) */
    rect.c5 {  fill: #d5b511ff }  /*  11 pixel(s) */
    rect.c6 {  fill: #fb1a06ff }  /*  20 pixel(s) */
    rect.c8 {  fill: #f85c0fff }  /*  12 pixel(s) */
    rect.c10 {  fill: #b895d0ff }  /*  19 pixel(s) */
    rect.c11 {  fill: #ffffffff }  /*  87 pixel(s) */
    rect.c13 {  fill: #f2433aff }  /*   1 pixel(s) */
    rect.c2 {  fill: #a68b00ff }  /*  19 pixel(s) */
    rect.c3 {  fill: #ffe974ff }  /*   6 pixel(s) */
    rect.c4 {  fill: #ffea65ff }  /*  14 pixel(s) */
    rect.c7 {  fill: #ffd700ff }  /* 133 pixel(s) */
    rect.c9 {  fill: #ffdb3cff }  /*   2 pixel(s) */
    rect.c12 {  fill: #ffdfdfff }  /*   6 pixel(s) */
    rect.px {  shape-rendering: crispEdges  }
  </style>
  <rect class="px c1" x="7" y="7" width="1" height="1"/>
  <rect class="px c1" x="8" y="7" width="1" height="1"/>
  <rect class="px c1" x="9" y="7" width="1" height="1"/>
  <rect class="px c1" x="15" y="7" width="1" height="1"/>
  <rect class="px c1" x="16" y="7" width="1" height="1"/>
  <rect class="px c1" x="17" y="7" width="1" height="1"/>
  <rect class="px c1" x="6" y="8" width="1" height="1"/>
  <rect class="px c2" x="7" y="8" width="1" height="1"/>
  <rect class="px c2" x="8" y="8" width="1" height="1"/>
  <rect class="px c2" x="9" y="8" width="1" height="1"/>
  <rect class="px c1" x="10" y="8" width="1" height="1"/>
  <rect class="px c1" x="14" y="8" width="1" height="1"/>
  <rect class="px c3" x="15" y="8" width="1" height="1"/>
  <rect class="px c3" x="16" y="8" width="1" height="1"/>
  <rect class="px c3" x="17" y="8" width="1" height="1"/>
  <rect class="px c1" x="18" y="8" width="1" height="1"/>
  <rect class="px c1" x="6" y="9" width="1" height="1"/>
  <rect class="px c2" x="7" y="9" width="1" height="1"/>
  <rect class="px c1" x="8" y="9" width="1" height="1"/>
  <rect class="px c1" x="9" y="9" width="1" height="1"/>
  <rect class="px c1" x="10" y="9" width="1" height="1"/>
  <rect class="px c1" x="11" y="9" width="1" height="1"/>
  <rect class="px c1" x="12" y="9" width="1" height="1"/>
  <rect class="px c1" x="13" y="9" width="1" height="1"/>
  <rect class="px c1" x="14" y="9" width="1" height="1"/>
  <rect class="px c3" x="15" y="9" width="1" height="1"/>
  <rect class="px c2" x="16" y="9" width="1" height="1"/>
  <rect class="px c4" x="17" y="9" width="1" height="1"/>
  <rect class="px c1" x="18" y="9" width="1" height="1"/>
  <rect class="px c1" x="6" y="10" width="1" height="1"/>
  <rect class="px c5" x="7" y="10" width="1" height="1"/>
  <rect class="px c5" x="8" y="10" width="1" height="1"/>
  <rect class="px c5" x="9" y="10" width="1" height="1"/>
  <rect class="px c5" x="10" y="10" width="1" height="1"/>
  <rect class="px c5" x="11" y="10" width="1" height="1"/>
  <rect class="px c5" x="12" y="10" width="1" height="1"/>
  <rect class="px c3" x="13" y="10" width="1" height="1"/>
  <rect class="px c3" x="14" y="10" width="1" height="1"/>
  <rect class="px c2" x="15" y="10" width="1" height="1"/>
  <rect class="px c2" x="16" y="10" width="1" height="1"/>
  <rect class="px c4" x="17" y="10" width="1" height="1"/>
  <rect class="px c1" x="18" y="10" width="1" height="1"/>
  <rect class="px c1" x="5" y="11" width="1" height="1"/>
  <rect class="px c5" x="6" y="11" width="1" height="1"/>
  <rect class="px c6" x="7" y="11" width="1" height="1"/>
  <rect class="px c7" x="8" y="11" width="1" height="1"/>
  <rect class="px c7" x="9" y="11" width="1" height="1"/>
  <rect class="px c7" x="10" y="11" width="1" height="1"/>
  <rect class="px c7" x="11" y="11" width="1" height="1"/>
  <rect class="px c6" x="12" y="11" width="1" height="1"/>
  <rect class="px c7" x="13" y="11" width="1" height="1"/>
  <rect class="px c7" x="14" y="11" width="1" height="1"/>
  <rect class="px c7" x="15" y="11" width="1" height="1"/>
  <rect class="px c2" x="16" y="11" width="1" height="1"/>
  <rect class="px c4" x="17" y="11" width="1" height="1"/>
  <rect class="px c1" x="18" y="11" width="1" height="1"/>
  <rect class="px c1" x="5" y="12" width="1" height="1"/>
  <rect class="px c5" x="6" y="12" width="1" height="1"/>
  <rect class="px c6" x="7" y="12" width="1" height="1"/>
  <rect class="px c7" x="8" y="12" width="1" height="1"/>
  <rect class="px c7" x="9" y="12" width="1" height="1"/>
  <rect class="px c7" x="10" y="12" width="1" height="1"/>
  <rect class="px c7" x="11" y="12" width="1" height="1"/>
  <rect class="px c6" x="12" y="12" width="1" height="1"/>
  <rect class="px c7" x="13" y="12" width="1" height="1"/>
  <rect class="px c7" x="14" y="12" width="1" height="1"/>
  <rect class="px c7" x="15" y="12" width="1" height="1"/>
  <rect class="px c7" x="16" y="12" width="1" height="1"/>
  <rect class="px c7" x="17" y="12" width="1" height="1"/>
  <rect class="px c7" x="18" y="12" width="1" height="1"/>
  <rect class="px c1" x="19" y="12" width="1" height="1"/>
  <rect class="px c1" x="5" y="13" width="1" height="1"/>
  <rect class="px c6" x="6" y="13" width="1" height="1"/>
  <rect class="px c8" x="7" y="13" width="1" height="1"/>
  <rect class="px c6" x="8" y="13" width="1" height="1"/>
  <rect class="px c7" x="9" y="13" width="1" height="1"/>
  <rect class="px c7" x="10" y="13" width="1" height="1"/>
  <rect class="px c6" x="11" y="13" width="1" height="1"/>
  <rect class="px c8" x="12" y="13" width="1" height="1"/>
  <rect class="px c6" x="13" y="13" width="1" height="1"/>
  <rect class="px c7" x="14" y="13" width="1" height="1"/>
  <rect class="px c7" x="15" y="13" width="1" height="1"/>
  <rect class="px c7" x="16" y="13" width="1" height="1"/>
  <rect class="px c7" x="17" y="13" width="1" height="1"/>
  <rect class="px c7" x="18" y="13" width="1" height="1"/>
  <rect class="px c1" x="19" y="13" width="1" height="1"/>
  <rect class="px c6" x="3" y="14" width="1" height="1"/>
  <rect class="px c8" x="4" y="14" width="1" height="1"/>
  <rect class="px c8" x="5" y="14" width="1" height="1"/>
  <rect class="px c8" x="6" y="14" width="1" height="1"/>
  <rect class="px c9" x="7" y="14" width="1" height="1"/>
  <rect class="px c8" x="8" y="14" width="1" height="1"/>
  <rect class="px c6" x="9" y="14" width="1" height="1"/>
  <rect class="px c6" x="10" y="14" width="1" height="1"/>
  <rect class="px c8" x="11" y="14" width="1" height="1"/>
  <rect class="px c9" x="12" y="14" width="1" height="1"/>
  <rect class="px c8" x="13" y="14" width="1" height="1"/>
  <rect class="px c8" x="14" y="14" width="1" height="1"/>
  <rect class="px c8" x="15" y="14" width="1" height="1"/>
  <rect class="px c6" x="16" y="14" width="1" height="1"/>
  <rect class="px c7" x="17" y="14" width="1" height="1"/>
  <rect class="px c7" x="18" y="14" width="1" height="1"/>
  <rect class="px c7" x="19" y="14" width="1" height="1"/>
  <rect class="px c1" x="20" y="14" width="1" height="1"/>
  <rect class="px c1" x="4" y="15" width="1" height="1"/>
  <rect class="px c10" x="5" y="15" width="1" height="1"/>
  <rect class="px c6" x="6" y="15" width="1" height="1"/>
  <rect class="px c8" x="7" y="15" width="1" height="1"/>
  <rect class="px c6" x="8" y="15" width="1" height="1"/>
  <rect class="px c4" x="9" y="15" width="1" height="1"/>
  <rect class="px c4" x="10" y="15" width="1" height="1"/>
  <rect class="px c6" x="11" y="15" width="1" height="1"/>
  <rect class="px c8" x="12" y="15" width="1" height="1"/>
  <rect class="px c6" x="13" y="15" width="1" height="1"/>
  <rect class="px c11" x="14" y="15" width="1" height="1"/>
  <rect class="px c11" x="15" y="15" width="1" height="1"/>
  <rect class="px c11" x="16" y="15" width="1" height="1"/>
  <rect class="px c11" x="17" y="15" width="1" height="1"/>
  <rect class="px c7" x="18" y="15" width="1" height="1"/>
  <rect class="px c7" x="19" y="15" width="1" height="1"/>
  <rect class="px c1" x="20" y="15" width="1" height="1"/>
  <rect class="px c1" x="4" y="16" width="1" height="1"/>
  <rect class="px c10" x="5" y="16" width="1" height="1"/>
  <rect class="px c11" x="6" y="16" width="1" height="1"/>
  <rect class="px c6" x="7" y="16" width="1" height="1"/>
  <rect class="px c4" x="8" y="16" width="1" height="1"/>
  <rect class="px c11" x="9" y="16" width="1" height="1"/>
  <rect class="px c11" x="10" y="16" width="1" height="1"/>
  <rect class="px c4" x="11" y="16" width="1" height="1"/>
  <rect class="px c6" x="12" y="16" width="1" height="1"/>
  <rect class="px c11" x="13" y="16" width="1" height="1"/>
  <rect class="px c11" x="14" y="16" width="1" height="1"/>
  <rect class="px c11" x="15" y="16" width="1" height="1"/>
  <rect class="px c11" x="16" y="16" width="1" height="1"/>
  <rect class="px c11" x="17" y="16" width="1" height="1"/>
  <rect class="px c7" x="18" y="16" width="1" height="1"/>
  <rect class="px c7" x="19" y="16" width="1" height="1"/>
  <rect class="px c1" x="20" y="16" width="1" height="1"/>
  <rect class="px c1" x="4" y="17" width="1" height="1"/>
  <rect class="px c10" x="5" y="17" width="1" height="1"/>
  <rect class="px c11" x="6" y="17" width="1" height="1"/>
  <rect class="px c6" x="7" y="17" width="1" height="1"/>
  <rect class="px c1" x="8" y="17" width="1" height="1"/>
  <rect class="px c11" x="9" y="17" width="1" height="1"/>
  <rect class="px c1" x="10" y="17" width="1" height="1"/>
  <rect class="px c11" x="11" y="17" width="1" height="1"/>
  <rect class="px c6" x="12" y="17" width="1" height="1"/>
  <rect class="px c11" x="13" y="17" width="1" height="1"/>
  <rect class="px c12" x="14" y="17" width="1" height="1"/>
  <rect class="px c12" x="15" y="17" width="1" height="1"/>
  <rect class="px c12" x="16" y="17" width="1" height="1"/>
  <rect class="px c11" x="17" y="17" width="1" height="1"/>
  <rect class="px c7" x="18" y="17" width="1" height="1"/>
  <rect class="px c7" x="19" y="17" width="1" height="1"/>
  <rect class="px c1" x="20" y="17" width="1" height="1"/>
  <rect class="px c1" x="4" y="18" width="1" height="1"/>
  <rect class="px c10" x="5" y="18" width="1" height="1"/>
  <rect class="px c11" x="6" y="18" width="1" height="1"/>
  <rect class="px c11" x="7" y="18" width="1" height="1"/>
  <rect class="px c11" x="8" y="18" width="1" height="1"/>
  <rect class="px c11" x="9" y="18" width="1" height="1"/>
  <rect class="px c11" x="10" y="18" width="1" height="1"/>
  <rect class="px c11" x="11" y="18" width="1" height="1"/>
  <rect class="px c11" x="12" y="18" width="1" height="1"/>
  <rect class="px c11" x="13" y="18" width="1" height="1"/>
  <rect class="px c12" x="14" y="18" width="1" height="1"/>
  <rect class="px c12" x="15" y="18" width="1" height="1"/>
  <rect class="px c11" x="16" y="18" width="1" height="1"/>
  <rect class="px c11" x="17" y="18" width="1" height="1"/>
  <rect class="px c7" x="18" y="18" width="1" height="1"/>
  <rect class="px c7" x="19" y="18" width="1" height="1"/>
  <rect class="px c7" x="20" y="18" width="1" height="1"/>
  <rect class="px c1" x="21" y="18" width="1" height="1"/>
  <rect class="px c1" x="4" y="19" width="1" height="1"/>
  <rect class="px c10" x="5" y="19" width="1" height="1"/>
  <rect class="px c11" x="6" y="19" width="1" height="1"/>
  <rect class="px c1" x="7" y="19" width="1" height="1"/>
  <rect class="px c1" x="8" y="19" width="1" height="1"/>
  <rect class="px c1" x="9" y="19" width="1" height="1"/>
  <rect class="px c1" x="10" y="19" width="1" height="1"/>
  <rect class="px c1" x="11" y="19" width="1" height="1"/>
  <rect class="px c11" x="12" y="19" width="1" height="1"/>
  <rect class="px c11" x="13" y="19" width="1" height="1"/>
  <rect class="px c12" x="14" y="19" width="1" height="1"/>
  <rect class="px c11" x="15" y="19" width="1" height="1"/>
  <rect class="px c11" x="16" y="19" width="1" height="1"/>
  <rect class="px c11" x="17" y="19" width="1" height="1"/>
  <rect class="px c7" x="18" y="19" width="1" height="1"/>
  <rect class="px c7" x="19" y="19" width="1" height="1"/>
  <rect class="px c7" x="20" y="19" width="1" height="1"/>
  <rect class="px c7" x="21" y="19" width="1" height="1"/>
  <rect class="px c1" x="22" y="19" width="1" height="1"/>
  <rect class="px c1" x="23" y="19" width="1" height="1"/>
  <rect class="px c1" x="26" y="19" width="1" height="1"/>
  <rect class="px c1" x="27" y="19" width="1" height="1"/>
  <rect class="px c1" x="28" y="19" width="1" height="1"/>
  <rect class="px c1" x="4" y="20" width="1" height="1"/>
  <rect class="px c10" x="5" y="20" width="1" height="1"/>
  <rect class="px c11" x="6" y="20" width="1" height="1"/>
  <rect class="px c11" x="7" y="20" width="1" height="1"/>
  <rect class="px c1" x="8" y="20" width="1" height="1"/>
  <rect class="px c13" x="9" y="20" width="1" height="1"/>
  <rect class="px c1" x="10" y="20" width="1" height="1"/>
  <rect class="px c11" x="11" y="20" width="1" height="1"/>
  <rect class="px c11" x="12" y="20" width="1" height="1"/>
  <rect class="px c11" x="13" y="20" width="1" height="1"/>
  <rect class="px c11" x="14" y="20" width="1" height="1"/>
  <rect class="px c11" x="15" y="20" width="1" height="1"/>
  <rect class="px c11" x="16" y="20" width="1" height="1"/>
  <rect class="px c11" x="17" y="20" width="1" height="1"/>
  <rect class="px c7" x="18" y="20" width="1" height="1"/>
  <rect class="px c7" x="19" y="20" width="1" height="1"/>
  <rect class="px c4" x="20" y="20" width="1" height="1"/>
  <rect class="px c7" x="21" y="20" width="1" height="1"/>
  <rect class="px c7" x="22" y="20" width="1" height="1"/>
  <rect class="px c7" x="23" y="20" width="1" height="1"/>
  <rect class="px c1" x="24" y="20" width="1" height="1"/>
  <rect class="px c1" x="25" y="20" width="1" height="1"/>
  <rect class="px c11" x="26" y="20" width="1" height="1"/>
  <rect class="px c11" x="27" y="20" width="1" height="1"/>
  <rect class="px c11" x="28" y="20" width="1" height="1"/>
  <rect class="px c1" x="29" y="20" width="1" height="1"/>
  <rect class="px c1" x="5" y="21" width="1" height="1"/>
  <rect class="px c10" x="6" y="21" width="1" height="1"/>
  <rect class="px c11" x="7" y="21" width="1" height="1"/>
  <rect class="px c11" x="8" y="21" width="1" height="1"/>
  <rect class="px c1" x="9" y="21" width="1" height="1"/>
  <rect class="px c11" x="10" y="21" width="1" height="1"/>
  <rect class="px c11" x="11" y="21" width="1" height="1"/>
  <rect class="px c11" x="12" y="21" width="1" height="1"/>
  <rect class="px c11" x="13" y="21" width="1" height="1"/>
  <rect class="px c11" x="14" y="21" width="1" height="1"/>
  <rect class="px c11" x="15" y="21" width="1" height="1"/>
  <rect class="px c11" x="16" y="21" width="1" height="1"/>
  <rect class="px c7" x="17" y="21" width="1" height="1"/>
  <rect class="px c7" x="18" y="21" width="1" height="1"/>
  <rect class="px c7" x="19" y="21" width="1" height="1"/>
  <rect class="px c7" x="20" y="21" width="1" height="1"/>
  <rect class="px c4" x="21" y="21" width="1" height="1"/>
  <rect class="px c4" x="22" y="21" width="1" height="1"/>
  <rect class="px c7" x="23" y="21" width="1" height="1"/>
  <rect class="px c7" x="24" y="21" width="1" height="1"/>
  <rect class="px c1" x="25" y="21" width="1" height="1"/>
  <rect class="px c10" x="26" y="21" width="1" height="1"/>
  <rect class="px c11" x="27" y="21" width="1" height="1"/>
  <rect class="px c7" x="28" y="21" width="1" height="1"/>
  <rect class="px c7" x="29" y="21" width="1" height="1"/>
  <rect class="px c1" x="30" y="21" width="1" height="1"/>
  <rect class="px c1" x="6" y="22" width="1" height="1"/>
  <rect class="px c10" x="7" y="22" width="1" height="1"/>
  <rect class="px c10" x="8" y="22" width="1" height="1"/>
  <rect class="px c11" x="9" y="22" width="1" height="1"/>
  <rect class="px c11" x="10" y="22" width="1" height="1"/>
  <rect class="px c11" x="11" y="22" width="1" height="1"/>
  <rect class="px c11" x="12" y="22" width="1" height="1"/>
  <rect class="px c11" x="13" y="22" width="1" height="1"/>
  <rect class="px c11" x="14" y="22" width="1" height="1"/>
  <rect class="px c11" x="15" y="22" width="1" height="1"/>
  <rect class="px c7" x="16" y="22" width="1" height="1"/>
  <rect class="px c7" x="17" y="22" width="1" height="1"/>
  <rect class="px c7" x="18" y="22" width="1" height="1"/>
  <rect class="px c7" x="19" y="22" width="1" height="1"/>
  <rect class="px c7" x="20" y="22" width="1" height="1"/>
  <rect class="px c7" x="21" y="22" width="1" height="1"/>
  <rect class="px c7" x="22" y="22" width="1" height="1"/>
  <rect class="px c7" x="23" y="22" width="1" height="1"/>
  <rect class="px c7" x="24" y="22" width="1" height="1"/>
  <rect class="px c7" x="25" y="22" width="1" height="1"/>
  <rect class="px c1" x="26" y="22" width="1" height="1"/>
  <rect class="px c2" x="27" y="22" width="1" height="1"/>
  <rect class="px c2" x="28" y="22" width="1" height="1"/>
  <rect class="px c7" x="29" y="22" width="1" height="1"/>
  <rect class="px c1" x="30" y="22" width="1" height="1"/>
  <rect class="px c1" x="7" y="23" width="1" height="1"/>
  <rect class="px c1" x="8" y="23" width="1" height="1"/>
  <rect class="px c10" x="9" y="23" width="1" height="1"/>
  <rect class="px c10" x="10" y="23" width="1" height="1"/>
  <rect class="px c10" x="11" y="23" width="1" height="1"/>
  <rect class="px c11" x="12" y="23" width="1" height="1"/>
  <rect class="px c11" x="13" y="23" width="1" height="1"/>
  <rect class="px c7" x="14" y="23" width="1" height="1"/>
  <rect class="px c7" x="15" y="23" width="1" height="1"/>
  <rect class="px c7" x="16" y="23" width="1" height="1"/>
  <rect class="px c7" x="17" y="23" width="1" height="1"/>
  <rect class="px c7" x="18" y="23" width="1" height="1"/>
  <rect class="px c7" x="19" y="23" width="1" height="1"/>
  <rect class="px c7" x="20" y="23" width="1" height="1"/>
  <rect class="px c7" x="21" y="23" width="1" height="1"/>
  <rect class="px c7" x="22" y="23" width="1" height="1"/>
  <rect class="px c7" x="23" y="23" width="1" height="1"/>
  <rect class="px c7" x="24" y="23" width="1" height="1"/>
  <rect class="px c7" x="25" y="23" width="1" height="1"/>
  <rect class="px c1" x="26" y="23" width="1" height="1"/>
  <rect class="px c2" x="27" y="23" width="1" height="1"/>
  <rect class="px c2" x="28" y="23" width="1" height="1"/>
  <rect class="px c2" x="29" y="23" width="1" height="1"/>
  <rect class="px c1" x="30" y="23" width="1" height="1"/>
  <rect class="px c1" x="8" y="24" width="1" height="1"/>
  <rect class="px c10" x="9" y="24" width="1" height="1"/>
  <rect class="px c11" x="10" y="24" width="1" height="1"/>
  <rect class="px c11" x="11" y="24" width="1" height="1"/>
  <rect class="px c11" x="12" y="24" width="1" height="1"/>
  <rect class="px c11" x="13" y="24" width="1" height="1"/>
  <rect class="px c1" x="14" y="24" width="1" height="1"/>
  <rect class="px c7" x="15" y="24" width="1" height="1"/>
  <rect class="px c7" x="16" y="24" width="1" height="1"/>
  <rect class="px c7" x="17" y="24" width="1" height="1"/>
  <rect class="px c7" x="18" y="24" width="1" height="1"/>
  <rect class="px c7" x="19" y="24" width="1" height="1"/>
  <rect class="px c7" x="20" y="24" width="1" height="1"/>
  <rect class="px c7" x="21" y="24" width="1" height="1"/>
  <rect class="px c7" x="22" y="24" width="1" height="1"/>
  <rect class="px c1" x="23" y="24" width="1" height="1"/>
  <rect class="px c1" x="24" y="24" width="1" height="1"/>
  <rect class="px c7" x="25" y="24" width="1" height="1"/>
  <rect class="px c7" x="26" y="24" width="1" height="1"/>
  <rect class="px c1" x="27" y="24" width="1" height="1"/>
  <rect class="px c2" x="28" y="24" width="1" height="1"/>
  <rect class="px c2" x="29" y="24" width="1" height="1"/>
  <rect class="px c1" x="30" y="24" width="1" height="1"/>
  <rect class="px c1" x="9" y="25" width="1" height="1"/>
  <rect class="px c10" x="10" y="25" width="1" height="1"/>
  <rect class="px c11" x="11" y="25" width="1" height="1"/>
  <rect class="px c11" x="12" y="25" width="1" height="1"/>
  <rect class="px c11" x="13" y="25" width="1" height="1"/>
  <rect class="px c1" x="14" y="25" width="1" height="1"/>
  <rect class="px c7" x="15" y="25" width="1" height="1"/>
  <rect class="px c7" x="16" y="25" width="1" height="1"/>
  <rect class="px c7" x="17" y="25" width="1" height="1"/>
  <rect class="px c7" x="18" y="25" width="1" height="1"/>
  <rect class="px c7" x="19" y="25" width="1" height="1"/>
  <rect class="px c7" x="20" y="25" width="1" height="1"/>
  <rect class="px c7" x="21" y="25" width="1" height="1"/>
  <rect class="px c1" x="22" y="25" width="1" height="1"/>
  <rect class="px c7" x="23" y="25" width="1" height="1"/>
  <rect class="px c7" x="24" y="25" width="1" height="1"/>
  <rect class="px c7" x="25" y="25" width="1" height="1"/>
  <rect class="px c7" x="26" y="25" width="1" height="1"/>
  <rect class="px c1" x="27" y="25" width="1" height="1"/>
  <rect class="px c2" x="28" y="25" width="1" height="1"/>
  <rect class="px c2" x="29" y="25" width="1" height="1"/>
  <rect class="px c1" x="30" y="25" width="1" height="1"/>
  <rect class="px c1" x="9" y="26" width="1" height="1"/>
  <rect class="px c10" x="10" y="26" width="1" height="1"/>
  <rect class="px c11" x="11" y="26" width="1" height="1"/>
  <rect class="px c11" x="12" y="26" width="1" height="1"/>
  <rect class="px c11" x="13" y="26" width="1" height="1"/>
  <rect class="px c1" x="14" y="26" width="1" height="1"/>
  <rect class="px c7" x="15" y="26" width="1" height="1"/>
  <rect class="px c7" x="16" y="26" width="1" height="1"/>
  <rect class="px c1" x="17" y="26" width="1" height="1"/>
  <rect class="px c7" x="18" y="26" width="1" height="1"/>
  <rect class="px c7" x="19" y="26" width="1" height="1"/>
  <rect class="px c7" x="20" y="26" width="1" height="1"/>
  <rect class="px c1" x="21" y="26" width="1" height="1"/>
  <rect class="px c7" x="22" y="26" width="1" height="1"/>
  <rect class="px c7" x="23" y="26" width="1" height="1"/>
  <rect class="px c7" x="24" y="26" width="1" height="1"/>
  <rect class="px c7" x="25" y="26" width="1" height="1"/>
  <rect class="px c7" x="26" y="26" width="1" height="1"/>
  <rect class="px c1" x="27" y="26" width="1" height="1"/>
  <rect class="px c2" x="28" y="26" width="1" height="1"/>
  <rect class="px c1" x="29" y="26" width="1" height="1"/>
  <rect class="px c1" x="9" y="27" width="1" height="1"/>
  <rect class="px c1" x="10" y="27" width="1" height="1"/>
  <rect class="px c10" x="11" y="27" width="1" height="1"/>
  <rect class="px c11" x="12" y="27" width="1" height="1"/>
  <rect class="px c11" x="13" y="27" width="1" height="1"/>
  <rect class="px c1" x="14" y="27" width="1" height="1"/>
  <rect class="px c7" x="15" y="27" width="1" height="1"/>
  <rect class="px c7" x="16" y="27" width="1" height="1"/>
  <rect class="px c1" x="17" y="27" width="1" height="1"/>
  <rect class="px c4" x="18" y="27" width="1" height="1"/>
  <rect class="px c7" x="19" y="27" width="1" height="1"/>
  <rect class="px c7" x="20" y="27" width="1" height="1"/>
  <rect class="px c1" x="21" y="27" width="1" height="1"/>
  <rect class="px c7" x="22" y="27" width="1" height="1"/>
  <rect class="px c7" x="23" y="27" width="1" height="1"/>
  <rect class="px c7" x="24" y="27" width="1" height="1"/>
  <rect class="px c7" x="25" y="27" width="1" height="1"/>
  <rect class="px c7" x="26" y="27" width="1" height="1"/>
  <rect class="px c7" x="27" y="27" width="1" height="1"/>
  <rect class="px c1" x="28" y="27" width="1" height="1"/>
  <rect class="px c1" x="29" y="27" width="1" height="1"/>
  <rect class="px c1" x="9" y="28" width="1" height="1"/>
  <rect class="px c1" x="10" y="28" width="1" height="1"/>
  <rect class="px c1" x="11" y="28" width="1" height="1"/>
  <rect class="px c10" x="12" y="28" width="1" height="1"/>
  <rect class="px c11" x="13" y="28" width="1" height="1"/>
  <rect class="px c1" x="14" y="28" width="1" height="1"/>
  <rect class="px c7" x="15" y="28" width="1" height="1"/>
  <rect class="px c1" x="16" y="28" width="1" height="1"/>
  <rect class="px c11" x="17" y="28" width="1" height="1"/>
  <rect class="px c11" x="18" y="28" width="1" height="1"/>
  <rect class="px c4" x="19" y="28" width="1" height="1"/>
  <rect class="px c4" x="20" y="28" width="1" height="1"/>
  <rect class="px c1" x="21" y="28" width="1" height="1"/>
  <rect class="px c7" x="22" y="28" width="1" height="1"/>
  <rect class="px c7" x="23" y="28" width="1" height="1"/>
  <rect class="px c7" x="24" y="28" width="1" height="1"/>
  <rect class="px c7" x="25" y="28" width="1" height="1"/>
  <rect class="px c7" x="26" y="28" width="1" height="1"/>
  <rect class="px c7" x="27" y="28" width="1" height="1"/>
  <rect class="px c1" x="28" y="28" width="1" height="1"/>
  <rect class="px c1" x="9" y="29" width="1" height="1"/>
  <rect class="px c2" x="10" y="29" width="1" height="1"/>
  <rect class="px c1" x="11" y="29" width="1" height="1"/>
  <rect class="px c1" x="12" y="29" width="1" height="1"/>
  <rect class="px c10" x="13" y="29" width="1" height="1"/>
  <rect class="px c1" x="14" y="29" width="1" height="1"/>
  <rect class="px c7" x="15" y="29" width="1" height="1"/>
  <rect class="px c1" x="16" y="29" width="1" height="1"/>
  <rect class="px c11" x="17" y="29" width="1" height="1"/>
  <rect class="px c11" x="18" y="29" width="1" height="1"/>
  <rect class="px c11" x="19" y="29" width="1" height="1"/>
  <rect class="px c11" x="20" y="29" width="1" height="1"/>
  <rect class="px c4" x="21" y="29" width="1" height="1"/>
  <rect class="px c1" x="22" y="29" width="1" height="1"/>
  <rect class="px c1" x="23" y="29" width="1" height="1"/>
  <rect class="px c7" x="24" y="29" width="1" height="1"/>
  <rect class="px c7" x="25" y="29" width="1" height="1"/>
  <rect class="px c7" x="26" y="29" width="1" height="1"/>
  <rect class="px c7" x="27" y="29" width="1" height="1"/>
  <rect class="px c1" x="28" y="29" width="1" height="1"/>
  <rect class="px c1" x="9" y="30" width="1" height="1"/>
  <rect class="px c5" x="10" y="30" width="1" height="1"/>
  <rect class="px c1" x="11" y="30" width="1" height="1"/>
  <rect class="px c1" x="13" y="30" width="1" height="1"/>
  <rect class="px c1" x="14" y="30" width="1" height="1"/>
  <rect class="px c5" x="15" y="30" width="1" height="1"/>
  <rect class="px c1" x="16" y="30" width="1" height="1"/>
  <rect class="px c11" x="17" y="30" width="1" height="1"/>
  <rect class="px c11" x="18" y="30" width="1" height="1"/>
  <rect class="px c11" x="19" y="30" width="1" height="1"/>
  <rect class="px c11" x="20" y="30" width="1" height="1"/>
  <rect class="px c1" x="21" y="30" width="1" height="1"/>
  <rect class="px c5" x="22" y="30" width="1" height="1"/>
  <rect class="px c7" x="23" y="30" width="1" height="1"/>
  <rect class="px c7" x="24" y="30" width="1" height="1"/>
  <rect class="px c7" x="25" y="30" width="1" height="1"/>
  <rect class="px c7" x="26" y="30" width="1" height="1"/>
  <rect class="px c1" x="27" y="30" width="1" height="1"/>
  <rect class="px c1" x="9" y="31" width="1" height="1"/>
  <rect class="px c1" x="10" y="31" width="1" height="1"/>
  <rect class="px c1" x="11" y="31" width="1" height="1"/>
  <rect class="px c1" x="14" y="31" width="1" height="1"/>
  <rect class="px c1" x="15" y="31" width="1" height="1"/>
  <rect class="px c1" x="16" y="31" width="1" height="1"/>
  <rect class="px c1" x="17" y="31" width="1" height="1"/>
  <rect class="px c1" x="18" y="31" width="1" height="1"/>
  <rect class="px c1" x="19" y="31" width="1" height="1"/>
  <rect class="px c1" x="20" y="31" width="1" height="1"/>
  <rect class="px c1" x="21" y="31" width="1" height="1"/>
  <rect class="px c1" x="22" y="31" width="1" height="1"/>
  <rect class="px c1" x="23" y="31" width="1" height="1"/>
  <rect class="px c1" x="24" y="31" width="1" height="1"/>
  <rect class="px c1" x="25" y="31" width="1" height="1"/>
  <rect class="px c1" x="26" y="31" width="1" height="1"/>
</svg>
